<?xml version="1.0" encoding="utf-8"?>
<svg xmlns="http://www.w3.org/2000/svg" version="1.1" viewBox="0 0 1792 1024">
	<title>Six chairs arranged around a table. Five chairs at the table are labeled, going clockwise: “Cleaver,” “Markham,” “Spotswoode,” “Vance,” and “Allen.” A sixth chair, between Cleaver and Markham, sits farther away from the table and is labeled “Mannix.”</title>
	<g style="fill:none;stroke-linejoin:round;stroke-width:16;stroke:#000">
		<path d="m1186 478a395.7 395.7 0 0 1-395.7 395.7 395.7 395.7 0 0 1-395.7-395.7 395.7 395.7 0 0 1 395.7-395.7 395.7 395.7 0 0 1 395.7 395.7z"/>
		<path d="m1394 259.3a103.5 103.5 0 0 1 119.7 82.59 103.5 103.5 0 0 1-81.01 120.8l-20.66-101.4z"/>
		<path d="m998.7 96.29a103.5 103.5 0 0 1 144.6-13.36 103.5 103.5 0 0 1 15.61 144.4l-81.13-64.27z"/>
		<path d="m484.4 179.5a103.5 103.5 0 0 1-6.147-104.9 103.5 103.5 0 0 1 88.85-56.19 103.5 103.5 0 0 1 92.18 50.53l-88.95 52.92z"/>
		<path d="m1221 570.2a103.5 103.5 0 0 1 61.4 85.51 103.5 103.5 0 0 1-45.24 95.05 103.5 103.5 0 0 1-105.1 6.269l47.23-92.1z"/>
		<path d="m867.3 902.7a103.5 103.5 0 0 1-57.33 86.52 103.5 103.5 0 0 1-103.6-6.718 103.5 103.5 0 0 1-45.67-93.2l103.3 7.196z"/>
		<path d="m402.3 674.1a103.5 103.5 0 0 1-120.5-82.06 103.5 103.5 0 0 1 81.08-121.2l20.53 101.4z"/>
	</g>
	<g style="stroke-width:1px;stroke:#000">
		<path d="m54.1 561.8 10.37-24.41h-1.728q-4.752 0-4.752-3.6t4.752-3.6h9.504q4.752 0 4.752 3.6t-4.896 3.6l-14.76 34.78h-7.128l-14.54-34.78q-4.896 0-4.896-3.6t4.752-3.6h9.576q4.752 0 4.752 3.6t-4.752 3.6h-1.368z"/>
		<path d="m105.4 572.2q-4.752 0-4.752-3.6t4.752-3.6h1.656l-1.656-4.176h-17.14l-1.656 4.176h1.656q4.752 0 4.752 3.6t-4.752 3.6h-9.576q-4.752 0-4.752-3.6t4.824-3.6l11.16-27.58h-4.536q-4.824 0-4.824-3.6t4.824-3.6h15.55l14.33 34.78q4.896 0 4.896 3.6t-4.752 3.6zm-2.952-18.58-5.616-13.82-5.688 13.82z"/>
		<path d="m131.1 543.8v21.17h2.52q4.752 0 4.752 3.6t-4.752 3.6h-9.288q-4.824 0-4.824-3.6t4.392-3.6v-27.58h-1.08q-4.752 0-4.752-3.6t4.752-3.6h8.28l18.58 28.22v-21.02h-2.52q-4.752 0-4.752-3.6t4.752-3.6h9.36q4.752 0 4.752 3.6t-4.392 3.6v34.78h-7.128z"/>
		<path d="m194.1 531.7 0.72 0.288q1.224-1.728 3.024-1.728 3.6 0 3.6 4.752v6.048q0 4.752-3.6 4.752-1.656 0-2.376-0.864t-1.152-2.952q-0.504-2.52-3.6-4.032-3.024-1.512-6.552-1.512-5.472 0-9.072 3.744-3.6 3.672-3.6 9.36v4.608q0 5.4 3.816 8.64 3.888 3.24 10.37 3.24 1.872 0 3.384-0.216 1.584-0.288 2.52-0.504 0.936-0.288 1.872-0.864 1.008-0.648 1.296-0.864 0.288-0.288 0.936-1.008l0.648-0.648q1.152-1.152 2.592-1.152t2.52 1.08 1.08 2.52q0 3.024-4.824 5.976-4.824 2.88-12.24 2.88-9.144 0-15.19-5.328-5.976-5.4-5.976-13.61v-4.752q0-8.64 5.616-14.47t13.97-5.832q5.04 0 10.22 2.448z"/>
		<path d="m228.7 542.2q3.6 0 3.6 4.824v8.136q0 4.752-3.528 4.752-3.6 0-3.6-4.752v-0.504h-6.12v10.3h18.43v-3.744q0-4.824 3.6-4.824t3.6 4.824v10.94h-33.91q-4.752 0-4.752-3.6t4.752-3.6h1.08v-27.58h-1.08q-4.752 0-4.752-3.6t4.752-3.6h32.33v10.8q0 4.824-3.6 4.824t-3.6-4.824v-3.6h-16.85v10.15h6.12v-0.504q0-4.824 3.528-4.824z"/>
		<path d="m267.5 124.8q-4.752 0-4.752-3.6t4.752-3.6h1.656l-1.656-4.176h-17.14l-1.656 4.176h1.656q4.752 0 4.752 3.6t-4.752 3.6h-9.576q-4.752 0-4.752-3.6t4.824-3.6l11.16-27.58h-4.536q-4.824 0-4.824-3.6t4.824-3.6h15.55l14.33 34.78q4.896 0 4.896 3.6t-4.752 3.6zm-2.952-18.58-5.616-13.82-5.688 13.82z"/>
		<path d="m287.8 124.8q-4.752 0-4.752-3.6t4.752-3.6h4.104v-27.58h-4.104q-4.752 0-4.752-3.6t4.752-3.6h15.41q4.752 0 4.752 3.6t-4.752 3.6h-4.104v27.58h15.48v-6.624q0-4.824 3.6-4.824t3.6 4.824v13.82z"/>
		<path d="m331 124.8q-4.752 0-4.752-3.6t4.752-3.6h4.104v-27.58h-4.104q-4.752 0-4.752-3.6t4.752-3.6h15.41q4.752 0 4.752 3.6t-4.752 3.6h-4.104v27.58h15.48v-6.624q0-4.824 3.6-4.824t3.6 4.824v13.82z"/>
		<path d="m390.7 94.8q3.6 0 3.6 4.824v8.136q0 4.752-3.528 4.752-3.6 0-3.6-4.752v-0.504h-6.12v10.3h18.43v-3.744q0-4.824 3.6-4.824t3.6 4.824v10.94h-33.91q-4.752 0-4.752-3.6t4.752-3.6h1.08v-27.58h-1.08q-4.752 0-4.752-3.6t4.752-3.6h32.33v10.8q0 4.824-3.6 4.824t-3.6-4.824v-3.6h-16.85v10.15h6.12v-0.504q0-4.824 3.528-4.824z"/>
		<path d="m422.8 96.39v21.17h2.52q4.752 0 4.752 3.6t-4.752 3.6h-9.288q-4.824 0-4.824-3.6t4.392-3.6v-27.58h-1.08q-4.752 0-4.752-3.6t4.752-3.6h8.28l18.58 28.22v-21.02h-2.52q-4.752 0-4.752-3.6t4.752-3.6h9.36q4.752 0 4.752 3.6t-4.392 3.6v34.78h-7.128z"/>
		<path d="m242.2 947.6v6.336q0 4.824-3.528 4.824-0.792 0-1.44-0.216-0.576-0.288-0.936-0.576-0.288-0.288-0.576-0.792-0.288-0.576-0.36-0.864t-0.216-0.792q-0.072-0.576-0.072-0.648-0.504-2.16-2.88-3.456-2.304-1.368-5.688-1.368t-5.76 1.584-2.376 3.888q0 1.44 0.72 2.52 0.792 1.008 2.448 1.656 1.656 0.576 2.664 0.864 1.08 0.288 3.168 0.648 2.736 0.504 4.752 1.08 2.088 0.504 4.392 1.512t3.744 2.376q1.512 1.296 2.448 3.384 1.008 2.088 1.008 4.752 0 5.616-4.536 9.072t-11.95 3.456q-5.976 0-11.23-2.808-1.44 1.728-2.88 1.728-3.672 0-3.672-4.752v-4.752q0-4.752 3.6-4.752 0.504 0 0.936 0.144 0.432 0.072 0.792 0.288 0.36 0.144 0.576 0.36 0.288 0.144 0.432 0.504 0.216 0.288 0.36 0.504t0.216 0.504q0.144 0.288 0.144 0.504 0.072 0.144 0.144 0.432l0.072 0.216q0.504 1.944 3.456 3.312t6.552 1.368q4.032 0 6.768-1.584t2.736-3.888q0-1.8-1.584-2.952-1.512-1.224-3.024-1.584-1.512-0.432-4.968-1.08-0.504-0.072-0.72-0.144-3.312-0.648-5.688-1.368-2.304-0.792-4.68-2.16-2.304-1.44-3.528-3.744-1.152-2.376-1.152-5.544 0-5.472 4.464-9.072 4.464-3.672 11.16-3.672 5.544 0 9.36 2.376 0.576-1.368 1.152-1.872t1.656-0.504q3.528 0 3.528 4.752z"/>
		<path d="m269.3 978.6q4.752 0 4.752 3.6t-4.752 3.6h-15.41q-4.752 0-4.752-3.6t4.752-3.6h1.08v-27.58h-1.08q-4.752 0-4.752-3.6t4.752-3.6h16.78q6.84 0 11.23 3.816t4.392 9.792q0 6.696-4.68 10.37-4.68 3.6-12.38 3.6h-7.056v7.2zm-7.128-27.58v13.18h8.496q3.744 0 5.832-1.728 2.16-1.8 2.16-4.824 0-3.096-2.16-4.824-2.088-1.8-5.832-1.8z"/>
		<path d="m313 942.8q3.384 0 6.84 1.44 3.456 1.368 6.408 4.032 3.024 2.592 4.896 7.056 1.944 4.392 1.944 9.792 0 8.856-5.976 15.26-5.904 6.408-14.11 6.408-8.352 0-14.26-6.408-5.832-6.48-5.832-15.62 0-9.072 5.904-15.48 5.904-6.48 14.18-6.48zm0 7.2q-5.256 0-9.072 4.392-3.816 4.32-3.816 10.37 0 6.12 3.744 10.51 3.816 4.32 9.144 4.32 5.256 0 9.072-4.32t3.816-10.3q0-6.192-3.816-10.58-3.744-4.392-9.072-4.392z"/>
		<path d="m364.5 978.6q4.752 0 4.752 3.6t-4.752 3.6h-16.63q-4.752 0-4.752-3.6t4.752-3.6h4.68v-27.58h-7.704v6.696q0 4.752-3.6 4.752t-3.6-4.752v-13.9h37.15v13.9q0 4.752-3.6 4.752t-3.6-4.752v-6.696h-7.848v27.58z"/>
		<path d="m415 947.6v6.336q0 4.824-3.528 4.824-0.792 0-1.44-0.216-0.576-0.288-0.936-0.576-0.288-0.288-0.576-0.792-0.288-0.576-0.36-0.864t-0.216-0.792q-0.072-0.576-0.072-0.648-0.504-2.16-2.88-3.456-2.304-1.368-5.688-1.368t-5.76 1.584-2.376 3.888q0 1.44 0.72 2.52 0.792 1.008 2.448 1.656 1.656 0.576 2.664 0.864 1.08 0.288 3.168 0.648 2.736 0.504 4.752 1.08 2.088 0.504 4.392 1.512t3.744 2.376q1.512 1.296 2.448 3.384 1.008 2.088 1.008 4.752 0 5.616-4.536 9.072t-11.95 3.456q-5.976 0-11.23-2.808-1.44 1.728-2.88 1.728-3.672 0-3.672-4.752v-4.752q0-4.752 3.6-4.752 0.504 0 0.936 0.144 0.432 0.072 0.792 0.288 0.36 0.144 0.576 0.36 0.288 0.144 0.432 0.504 0.216 0.288 0.36 0.504t0.216 0.504q0.144 0.288 0.144 0.504 0.072 0.144 0.144 0.432l0.072 0.216q0.504 1.944 3.456 3.312t6.552 1.368q4.032 0 6.768-1.584t2.736-3.888q0-1.8-1.584-2.952-1.512-1.224-3.024-1.584-1.512-0.432-4.968-1.08-0.504-0.072-0.72-0.144-3.312-0.648-5.688-1.368-2.304-0.792-4.68-2.16-2.304-1.44-3.528-3.744-1.152-2.376-1.152-5.544 0-5.472 4.464-9.072 4.464-3.672 11.16-3.672 5.544 0 9.36 2.376 0.576-1.368 1.152-1.872t1.656-0.504q3.528 0 3.528 4.752z"/>
		<path d="m442.6 965.8-6.552 19.94h-7.992l-4.464-34.78q-3.312-0.432-3.312-3.456 0-3.744 4.752-3.744h9.432q4.824 0 4.824 3.6t-4.824 3.6h-3.456l2.592 19.58 5.472-16.27h7.488l5.472 16.27 2.52-19.58h-3.816q-4.752 0-4.752-3.6t4.752-3.6h9.432q4.752 0 4.752 3.6 0 3.024-3.384 3.6l-4.32 34.78h-7.92z"/>
		<path d="m485.8 942.8q3.384 0 6.84 1.44 3.456 1.368 6.408 4.032 3.024 2.592 4.896 7.056 1.944 4.392 1.944 9.792 0 8.856-5.976 15.26-5.904 6.408-14.11 6.408-8.352 0-14.26-6.408-5.832-6.48-5.832-15.62 0-9.072 5.904-15.48 5.904-6.48 14.18-6.48zm0 7.2q-5.256 0-9.072 4.392-3.816 4.32-3.816 10.37 0 6.12 3.744 10.51 3.816 4.32 9.144 4.32 5.256 0 9.072-4.32t3.816-10.3q0-6.192-3.816-10.58-3.744-4.392-9.072-4.392z"/>
		<path d="m529 942.8q3.384 0 6.84 1.44 3.456 1.368 6.408 4.032 3.024 2.592 4.896 7.056 1.944 4.392 1.944 9.792 0 8.856-5.976 15.26-5.904 6.408-14.11 6.408-8.352 0-14.26-6.408-5.832-6.48-5.832-15.62 0-9.072 5.904-15.48 5.904-6.48 14.18-6.48zm0 7.2q-5.256 0-9.072 4.392-3.816 4.32-3.816 10.37 0 6.12 3.744 10.51 3.816 4.32 9.144 4.32 5.256 0 9.072-4.32t3.816-10.3q0-6.192-3.816-10.58-3.744-4.392-9.072-4.392z"/>
		<path d="m555.9 978.6v-27.58q-4.392 0-4.392-3.6t4.824-3.6h15.26q7.848 0 13.18 5.76 5.4 5.76 5.4 14.26v3.384q0 8.352-5.328 13.46-5.256 5.112-13.82 5.112h-14.69q-4.824 0-4.824-3.6 0-1.728 1.152-2.664t3.24-0.936zm27.07-14.9q0-1.872-0.576-3.816-0.504-2.016-1.8-4.104-1.224-2.088-3.744-3.384-2.448-1.368-5.832-1.368h-7.92v27.58h7.992q5.688 0 8.784-3.024t3.096-8.568z"/>
		<path d="m617.4 955.8q3.6 0 3.6 4.824v8.136q0 4.752-3.528 4.752-3.6 0-3.6-4.752v-0.504h-6.12v10.3h18.43v-3.744q0-4.824 3.6-4.824t3.6 4.824v10.94h-33.91q-4.752 0-4.752-3.6t4.752-3.6h1.08v-27.58h-1.08q-4.752 0-4.752-3.6t4.752-3.6h32.33v10.8q0 4.824-3.6 4.824t-3.6-4.824v-3.6h-16.85v10.15h6.12v-0.504q0-4.824 3.528-4.824z"/>
		<path d="m1532 270.7q-4.752 0-4.752-3.6t4.752-3.6h2.52v-20.81l-7.992 18.07h-6.552l-8.496-18.07v20.81h2.52q4.752 0 4.752 3.6t-4.752 3.6h-9.288q-4.824 0-4.824-3.6t4.392-3.6v-27.58q-3.744-0.36-3.744-3.672 0-1.656 1.152-2.592 1.224-0.936 3.312-0.936h8.136l9.936 21.38 9.72-21.38h7.92q4.752 0 4.752 3.6 0 3.24-3.744 3.6v27.58q4.392 0 4.392 3.6t-4.752 3.6z"/>
		<path d="m1574 270.7q-4.752 0-4.752-3.6t4.752-3.6h1.656l-1.656-4.176h-17.14l-1.656 4.176h1.656q4.752 0 4.752 3.6t-4.752 3.6h-9.576q-4.752 0-4.752-3.6t4.824-3.6l11.16-27.58h-4.536q-4.824 0-4.824-3.6t4.824-3.6h15.55l14.33 34.78q4.896 0 4.896 3.6t-4.752 3.6zm-2.952-18.58-5.616-13.82-5.688 13.82z"/>
		<path d="m1600 242.3v21.17h2.52q4.752 0 4.752 3.6t-4.752 3.6h-9.288q-4.824 0-4.824-3.6t4.392-3.6v-27.58h-1.08q-4.752 0-4.752-3.6t4.752-3.6h8.28l18.58 28.22v-21.02h-2.52q-4.752 0-4.752-3.6t4.752-3.6h9.36q4.752 0 4.752 3.6t-4.392 3.6v34.78h-7.128z"/>
		<path d="m1643 242.3v21.17h2.52q4.752 0 4.752 3.6t-4.752 3.6h-9.288q-4.824 0-4.824-3.6t4.392-3.6v-27.58h-1.08q-4.752 0-4.752-3.6t4.752-3.6h8.28l18.58 28.22v-21.02h-2.52q-4.752 0-4.752-3.6t4.752-3.6h9.36q4.752 0 4.752 3.6t-4.392 3.6v34.78h-7.128z"/>
		<path d="m1685 270.7q-4.752 0-4.752-3.6t4.752-3.6h7.272v-27.58h-7.272q-4.752 0-4.752-3.6t4.752-3.6h21.74q4.752 0 4.752 3.6t-4.752 3.6h-7.272v27.58h7.272q4.752 0 4.752 3.6t-4.752 3.6z"/>
		<path d="m1719 232.3q0-3.6 4.752-3.6h6.552q4.824 0 4.824 3.6 0 2.232-2.736 3.528l6.84 7.848 6.696-7.848q-2.736-1.368-2.736-3.528 0-3.6 4.824-3.6h6.48q4.752 0 4.752 3.6 0 1.656-1.152 2.664-1.08 0.936-2.952 0.936l-11.3 13.39 12.02 14.18q2.016 0 3.096 1.008 1.152 0.936 1.152 2.592 0 3.6-4.752 3.6h-7.992q-4.752 0-4.752-3.6 0-1.656 1.008-2.592 1.08-1.008 2.952-1.008l-7.272-8.64-7.344 8.64q1.8 0 2.808 1.008 1.08 0.936 1.08 2.592 0 3.6-4.752 3.6h-7.992q-4.752 0-4.752-3.6 0-1.656 1.08-2.592 1.152-1.008 3.168-1.008l11.95-14.26-11.38-13.32q-1.944 0-3.096-0.936-1.08-1.008-1.08-2.664z"/>
		<path d="m1311 766.5q-4.752 0-4.752-3.6t4.752-3.6h2.52v-20.81l-7.992 18.07h-6.552l-8.496-18.07v20.81h2.52q4.752 0 4.752 3.6t-4.752 3.6h-9.288q-4.824 0-4.824-3.6t4.392-3.6v-27.58q-3.744-0.36-3.744-3.672 0-1.656 1.152-2.592 1.224-0.936 3.312-0.936h8.136l9.936 21.38 9.72-21.38h7.92q4.752 0 4.752 3.6 0 3.24-3.744 3.6v27.58q4.392 0 4.392 3.6t-4.752 3.6z"/>
		<path d="m1354 766.5q-4.752 0-4.752-3.6t4.752-3.6h1.656l-1.656-4.176h-17.14l-1.656 4.176h1.656q4.752 0 4.752 3.6t-4.752 3.6h-9.576q-4.752 0-4.752-3.6t4.824-3.6l11.16-27.58h-4.536q-4.824 0-4.824-3.6t4.824-3.6h15.55l14.33 34.78q4.896 0 4.896 3.6t-4.752 3.6zm-2.952-18.58-5.616-13.82-5.688 13.82z"/>
		<path d="m1383 759.3q4.752 0 4.752 3.6t-4.752 3.6h-10.8q-4.752 0-4.752-3.6t4.752-3.6h1.08v-27.58h-1.08q-4.752 0-4.752-3.6t4.752-3.6h16.06q6.984 0 11.38 3.6 4.464 3.528 4.464 9.216 0 6.624-7.776 10.87 4.68 4.104 9.072 11.09h0.936q4.752 0 4.752 3.6t-4.752 3.6h-5.688q-2.664-5.184-6.84-10.15-4.104-5.04-6.408-5.832h-6.912v8.784zm-2.52-15.98h5.472q4.536 0 7.488-1.728 3.024-1.8 3.024-4.464 0-2.304-2.232-3.816-2.232-1.584-5.688-1.584h-8.064z"/>
		<path d="m1426 759.3q4.752 0 4.752 3.6t-4.752 3.6h-10.8q-4.752 0-4.752-3.6t4.752-3.6h1.08v-27.58h-1.08q-4.752 0-4.752-3.6t4.752-3.6h10.8q4.752 0 4.752 3.6t-4.752 3.6h-2.52v10.73l12.82-11.02q-2.232-0.864-2.232-3.24 0-3.672 4.752-3.672h7.2q4.752 0 4.752 3.6t-4.464 3.6l-12.67 11.02q6.984 3.672 12.17 16.56h2.304q4.752 0 4.752 3.6t-4.752 3.6h-7.92q-2.52-7.704-5.832-12.67-3.24-4.968-6.552-5.976l-4.32 3.672v7.776z"/>
		<path d="m1483 749.2h-15.41v10.15h1.08q4.752 0 4.752 3.6t-4.752 3.6h-8.712q-4.752 0-4.752-3.6t4.752-3.6h0.432v-27.58q-3.744-0.36-3.744-3.6 0-3.6 4.752-3.6h7.272q4.752 0 4.752 3.6t-4.752 3.6h-1.08v10.22h15.41v-10.22h-1.08q-4.752 0-4.752-3.6t4.752-3.6h7.272q4.752 0 4.752 3.6 0 3.24-3.744 3.6v27.58h0.432q4.752 0 4.752 3.6t-4.752 3.6h-8.712q-4.752 0-4.752-3.6t4.752-3.6h1.08z"/>
		<path d="m1526 766.5q-4.752 0-4.752-3.6t4.752-3.6h1.656l-1.656-4.176h-17.14l-1.656 4.176h1.656q4.752 0 4.752 3.6t-4.752 3.6h-9.576q-4.752 0-4.752-3.6t4.824-3.6l11.16-27.58h-4.536q-4.824 0-4.824-3.6t4.824-3.6h15.55l14.33 34.78q4.896 0 4.896 3.6t-4.752 3.6zm-2.952-18.58-5.616-13.82-5.688 13.82z"/>
		<path d="m1570 766.5q-4.752 0-4.752-3.6t4.752-3.6h2.52v-20.81l-7.992 18.07h-6.552l-8.496-18.07v20.81h2.52q4.752 0 4.752 3.6t-4.752 3.6h-9.288q-4.824 0-4.824-3.6t4.392-3.6v-27.58q-3.744-0.36-3.744-3.672 0-1.656 1.152-2.592 1.224-0.936 3.312-0.936h8.136l9.936 21.38 9.72-21.38h7.92q4.752 0 4.752 3.6 0 3.24-3.744 3.6v27.58q4.392 0 4.392 3.6t-4.752 3.6z"/>
		<path d="m1219 61.39 0.72 0.288q1.224-1.728 3.024-1.728 3.6 0 3.6 4.752v6.048q0 4.752-3.6 4.752-1.656 0-2.376-0.864t-1.152-2.952q-0.504-2.52-3.6-4.032-3.024-1.512-6.552-1.512-5.472 0-9.072 3.744-3.6 3.672-3.6 9.36v4.608q0 5.4 3.816 8.64 3.888 3.24 10.37 3.24 1.872 0 3.384-0.216 1.584-0.288 2.52-0.504 0.936-0.288 1.872-0.864 1.008-0.648 1.296-0.864 0.288-0.288 0.936-1.008l0.648-0.648q1.152-1.152 2.592-1.152t2.52 1.08 1.08 2.52q0 3.024-4.824 5.976-4.824 2.88-12.24 2.88-9.144 0-15.19-5.328-5.976-5.4-5.976-13.61v-4.752q0-8.64 5.616-14.47t13.97-5.832q5.04 0 10.22 2.448z"/>
		<path d="m1237 101.9q-4.752 0-4.752-3.6 0-3.6 4.752-3.6h4.104v-27.58h-4.104q-4.752 0-4.752-3.6t4.752-3.6h15.41q4.752 0 4.752 3.6t-4.752 3.6h-4.104v27.58h15.48v-6.624q0-4.824 3.6-4.824t3.6 4.824v13.82z"/>
		<path d="m1297 71.97q3.6 0 3.6 4.824v8.136q0 4.752-3.528 4.752-3.6 0-3.6-4.752v-0.504h-6.12v10.3h18.43v-3.744q0-4.824 3.6-4.824t3.6 4.824v10.94h-33.91q-4.752 0-4.752-3.6 0-3.6 4.752-3.6h1.08v-27.58h-1.08q-4.752 0-4.752-3.6t4.752-3.6h32.33v10.8q0 4.824-3.6 4.824t-3.6-4.824v-3.6h-16.85v10.15h6.12v-0.504q0-4.824 3.528-4.824z"/>
		<path d="m1346 101.9q-4.752 0-4.752-3.6 0-3.6 4.752-3.6h1.656l-1.656-4.176h-17.14l-1.656 4.176h1.656q4.752 0 4.752 3.6 0 3.6-4.752 3.6h-9.576q-4.752 0-4.752-3.6 0-3.6 4.824-3.6l11.16-27.58h-4.536q-4.824 0-4.824-3.6t4.824-3.6h15.55l14.33 34.78q4.896 0 4.896 3.6 0 3.6-4.752 3.6zm-2.952-18.58-5.616-13.82-5.688 13.82z"/>
		<path d="m1381 91.56 10.37-24.41h-1.728q-4.752 0-4.752-3.6t4.752-3.6h9.504q4.752 0 4.752 3.6t-4.896 3.6l-14.76 34.78h-7.128l-14.54-34.78q-4.896 0-4.896-3.6t4.752-3.6h9.576q4.752 0 4.752 3.6t-4.752 3.6h-1.368z"/>
		<path d="m1426 71.97q3.6 0 3.6 4.824v8.136q0 4.752-3.528 4.752-3.6 0-3.6-4.752v-0.504h-6.12v10.3h18.43v-3.744q0-4.824 3.6-4.824t3.6 4.824v10.94h-33.91q-4.752 0-4.752-3.6 0-3.6 4.752-3.6h1.08v-27.58h-1.08q-4.752 0-4.752-3.6t4.752-3.6h32.33v10.8q0 4.824-3.6 4.824t-3.6-4.824v-3.6h-16.85v10.15h6.12v-0.504q0-4.824 3.528-4.824z"/>
		<path d="m1462 94.72q4.752 0 4.752 3.6 0 3.6-4.752 3.6h-10.8q-4.752 0-4.752-3.6 0-3.6 4.752-3.6h1.08v-27.58h-1.08q-4.752 0-4.752-3.6t4.752-3.6h16.06q6.984 0 11.38 3.6 4.464 3.528 4.464 9.216 0 6.624-7.776 10.87 4.68 4.104 9.072 11.09h0.936q4.752 0 4.752 3.6 0 3.6-4.752 3.6h-5.688q-2.664-5.184-6.84-10.15-4.104-5.04-6.408-5.832h-6.912v8.784zm-2.52-15.98h5.472q4.536 0 7.488-1.728 3.024-1.8 3.024-4.464 0-2.304-2.232-3.816-2.232-1.584-5.688-1.584h-8.064z"/>
	</g>
</svg>
