<?xml version="1.0" encoding="utf-8"?>
<svg xmlns="http://www.w3.org/2000/svg" version="1.1" viewBox="0 0 1267 608">
	<title>Six chairs arranged around a table. Five chairs at the table are labeled, going clockwise: “Cleaver,” “Markham,” “Spotswoode,” “Vance,” and “Allen.” A sixth chair, between Cleaver and Markham, sits farther away from the table and is labeled “Mannix.”</title>
	<g style="fill:none;stroke-linejoin:round;stroke-width:9.6063;stroke:#000">
		<path d="m803.72 286.71c0 63.009-25.031 123.44-69.585 167.99s-104.98 69.584-167.99 69.584-123.44-25.03-167.99-69.584-69.584-104.98-69.584-167.99 25.03-123.44 69.584-167.99c44.554-44.554 104.98-69.585 167.99-69.585s123.44 25.03 167.99 69.585c44.554 44.554 69.585 104.98 69.585 167.99z"/>
		<path d="m928.61 155.4c33.488-5.921 65.516 16.177 71.867 49.587 6.37 33.413-15.308 65.738-48.638 72.527l-12.404-60.88z"/>
		<path d="m691.27 57.535c21.893-25.933 60.543-29.504 86.817-8.0212 26.28 21.488 30.453 60.089 9.372 86.696l-48.71-38.587z"/>
		<path d="m382.49 107.49c-12.588-18.762-14.001-42.878-3.69-62.982 10.322-20.111 30.75-33.031 53.345-33.736 22.592-0.7058 43.787 10.912 55.344 30.338l-53.405 31.773z"/>
		<path d="m824.74 342.07c20.724 9.119 34.847 28.788 36.865 51.339 2.018 22.55-8.388 44.414-27.162 57.068-18.777 12.658-42.953 14.1-63.102 3.764l28.357-55.297z"/>
		<path d="m612.38 541.7c-1.335 22.232-14.467 42.05-34.42 51.946-19.958 9.903-43.69 8.364-62.201-4.034-18.508-12.39-28.969-33.738-27.42-55.957l62.02 4.321z"/>
		<path d="m333.19 404.45c-33.553 6.23-65.852-15.765-72.348-49.268-6.515-33.509 15.221-66 48.68-72.768l12.326 60.88z"/>
	</g>
	<g style="stroke-width:.60039;stroke:#000">
		<path d="m124.14 337.02 6.226-14.655h-1.037c-1.902 0-2.853-0.721-2.853-2.162s0.951-2.161 2.853-2.161h5.706c1.902 0 2.853 0.72 2.853 2.161s-0.98 2.162-2.94 2.162l-8.861 20.881h-4.28l-8.73-20.881c-1.96 0-2.939-0.721-2.939-2.162s0.951-2.161 2.853-2.161h5.749c1.902 0 2.853 0.72 2.853 2.161s-0.951 2.162-2.853 2.162h-0.821z"/>
		<path d="m154.94 343.27c-1.902 0-2.853-0.72-2.853-2.161s0.951-2.162 2.853-2.162h0.994l-0.994-2.507h-10.291l-0.994 2.507h0.994c1.902 0 2.853 0.721 2.853 2.162s-0.951 2.161-2.853 2.161h-5.749c-1.902 0-2.853-0.72-2.853-2.161s0.965-2.162 2.896-2.162l6.7-16.558h-2.723c-1.931 0-2.896-0.721-2.896-2.162s0.965-2.161 2.896-2.161h9.336l8.604 20.881c1.959 0 2.939 0.721 2.939 2.162s-0.951 2.161-2.853 2.161zm-1.772-11.155-3.372-8.297-3.415 8.297z"/>
		<path d="m170.37 326.22v12.71h1.513c1.902 0 2.853 0.721 2.853 2.162s-0.951 2.161-2.853 2.161h-5.576c-1.931 0-2.897-0.72-2.897-2.161s0.879-2.162 2.637-2.162v-16.558h-0.648c-1.902 0-2.853-0.721-2.853-2.162s0.951-2.161 2.853-2.161h4.971l11.155 16.943v-12.62h-1.513c-1.902 0-2.853-0.721-2.853-2.162s0.951-2.161 2.853-2.161h5.62c1.902 0 2.853 0.72 2.853 2.161s-0.879 2.162-2.637 2.162v20.881h-4.28z"/>
		<path d="m208.19 318.95 0.432 0.173c0.49-0.691 1.095-1.037 1.816-1.037 1.441 0 2.161 0.951 2.161 2.853v3.631c0 1.902-0.72 2.853-2.161 2.853-0.663 0-1.139-0.173-1.427-0.519-0.288-0.345-0.519-0.936-0.691-1.772-0.202-1.009-0.923-1.816-2.162-2.421-1.21-0.605-2.521-0.908-3.934-0.908-2.19 0-4.005 0.75-5.446 2.248-1.441 1.47-2.162 3.343-2.162 5.62v2.767c0 2.161 0.764 3.89 2.291 5.187 1.557 1.297 3.632 1.945 6.226 1.945 0.75 0 1.427-0.043 2.032-0.129 0.634-0.116 1.138-0.217 1.513-0.303 0.375-0.115 0.749-0.288 1.124-0.519 0.404-0.259 0.663-0.432 0.778-0.518 0.115-0.116 0.303-0.317 0.562-0.606l0.389-0.389c0.461-0.461 0.98-0.691 1.556-0.691 0.577 0 1.081 0.216 1.513 0.648 0.433 0.432 0.649 0.937 0.649 1.513 0 1.21-0.966 2.406-2.896 3.588-1.931 1.153-4.381 1.729-7.349 1.729-3.66 0-6.7-1.066-9.12-3.199-2.392-2.161-3.588-4.885-3.588-8.171v-2.853c0-3.458 1.124-6.354 3.372-8.688 2.247-2.333 5.043-3.501 8.387-3.501 2.017 0 4.063 0.49 6.136 1.469z"/>
		<path d="m228.97 325.26c1.44 0 2.161 0.965 2.161 2.896v4.885c0 1.902-0.706 2.853-2.118 2.853-1.441 0-2.162-0.951-2.162-2.853v-0.303h-3.674v6.184h11.065v-2.248c0-1.931 0.721-2.896 2.162-2.896s2.161 0.965 2.161 2.896v6.569h-20.359c-1.902 0-2.853-0.721-2.853-2.162s0.951-2.161 2.853-2.161h0.648v-16.559h-0.648c-1.902 0-2.853-0.721-2.853-2.162s0.951-2.161 2.853-2.161h19.41v6.484c0 1.931-0.72 2.897-2.161 2.897s-2.161-0.966-2.161-2.897v-2.161h-10.117v6.094h3.674v-0.303c0-1.931 0.706-2.896 2.119-2.896z"/>
		<path d="m252.26 74.652c-1.902 0-2.853-0.7205-2.853-2.1615 0-1.4409 0.951-2.1614 2.853-2.1614h0.994l-0.994-2.5072h-10.291l-0.994 2.5072h0.994c1.902 0 2.853 0.7205 2.853 2.1614 0 1.441-0.951 2.1615-2.853 2.1615h-5.749c-1.902 0-2.853-0.7205-2.853-2.1615 0-1.4409 0.965-2.1614 2.896-2.1614l6.7-16.559h-2.723c-1.931 0-2.896-0.7204-2.896-2.1614 0-1.4409 0.965-2.1614 2.896-2.1614h9.336l8.604 20.882c1.959 0 2.939 0.7205 2.939 2.1614 0 1.441-0.951 2.1615-2.853 2.1615zm-1.773-11.155-3.371-8.2974-3.415 8.2974z"/>
		<path d="m264.45 74.652c-1.902 0-2.853-0.7205-2.853-2.1615 0-1.4409 0.951-2.1614 2.853-2.1614h2.464v-16.559h-2.464c-1.902 0-2.853-0.7204-2.853-2.1614 0-1.4409 0.951-2.1614 2.853-2.1614h9.252c1.902 0 2.853 0.7205 2.853 2.1614 0 1.441-0.951 2.1614-2.853 2.1614h-2.464v16.559h9.294v-3.977c0-1.9309 0.72-2.8963 2.161-2.8963s2.162 0.9654 2.162 2.8963v8.2974z"/>
		<path d="m290.39 74.652c-1.902 0-2.853-0.7205-2.853-2.1615 0-1.4409 0.951-2.1614 2.853-2.1614h2.464v-16.559h-2.464c-1.902 0-2.853-0.7204-2.853-2.1614 0-1.4409 0.951-2.1614 2.853-2.1614h9.252c1.902 0 2.853 0.7205 2.853 2.1614 0 1.441-0.951 2.1614-2.853 2.1614h-2.464v16.559h9.294v-3.977c0-1.9309 0.72-2.8963 2.161-2.8963s2.162 0.9654 2.162 2.8963v8.2974z"/>
		<path d="m326.23 56.64c1.441 0 2.162 0.9655 2.162 2.8963v4.8848c0 1.9021-0.706 2.8531-2.118 2.8531-1.441 0-2.162-0.951-2.162-2.8531v-0.3026h-3.674v6.1841h11.065v-2.2479c0-1.9308 0.72-2.8963 2.161-2.8963s2.162 0.9655 2.162 2.8963v6.5683h-20.36c-1.902 0-2.853-0.7204-2.853-2.1614 0-1.4409 0.951-2.1614 2.853-2.1614h0.649v-16.559h-0.649c-1.902 0-2.853-0.7204-2.853-2.1614 0-1.4409 0.951-2.1614 2.853-2.1614h19.411v6.4842c0 1.9309-0.72 2.8963-2.161 2.8963s-2.162-0.9654-2.162-2.8963v-2.1614h-10.116v6.094h3.674v-0.3026c0-1.9308 0.706-2.8963 2.118-2.8963z"/>
		<path d="m345.5 57.595v12.71h1.513c1.902 0 2.853 0.7205 2.853 2.1614 0 1.441-0.951 2.1614-2.853 2.1614h-5.576c-1.931 0-2.897-0.7204-2.897-2.1614 0-1.4409 0.879-2.1614 2.637-2.1614v-16.559h-0.648c-1.902 0-2.853-0.7204-2.853-2.1614 0-1.4409 0.951-2.1614 2.853-2.1614h4.971l11.155 16.943v-12.62h-1.513c-1.902 0-2.853-0.7204-2.853-2.1614 0-1.4409 0.951-2.1614 2.853-2.1614h5.62c1.902 0 2.853 0.7205 2.853 2.1614 0 1.441-0.879 2.1614-2.637 2.1614v20.882h-4.279z"/>
		<path d="m237.07 568.66v3.804c0 1.931-0.706 2.897-2.118 2.897-0.317 0-0.606-0.044-0.865-0.13-0.23-0.115-0.418-0.231-0.562-0.346-0.115-0.115-0.23-0.274-0.346-0.475-0.115-0.231-0.187-0.404-0.216-0.519s-0.072-0.274-0.13-0.476c-0.028-0.23-0.043-0.36-0.043-0.389-0.201-0.864-0.778-1.556-1.729-2.075-0.922-0.547-2.06-0.821-3.415-0.821-1.354 0-2.507 0.317-3.458 0.951s-1.427 1.412-1.427 2.334c0 0.577 0.144 1.081 0.433 1.513 0.317 0.404 0.806 0.735 1.469 0.995 0.663 0.23 1.196 0.403 1.6 0.518 0.432 0.116 1.066 0.245 1.902 0.389 1.095 0.202 2.046 0.418 2.853 0.649 0.836 0.202 1.715 0.504 2.637 0.908 0.922 0.403 1.671 0.879 2.248 1.426 0.605 0.519 1.095 1.196 1.469 2.032 0.404 0.836 0.606 1.787 0.606 2.853 0 2.248-0.908 4.063-2.724 5.447-1.815 1.383-4.207 2.075-7.174 2.075-2.392 0-4.64-0.562-6.743-1.686-0.576 0.691-1.153 1.037-1.729 1.037-1.47 0-2.205-0.951-2.205-2.853v-2.853c0-1.902 0.721-2.853 2.162-2.853 0.201 0 0.389 0.029 0.562 0.087 0.173 0.028 0.331 0.086 0.475 0.172 0.144 0.058 0.26 0.13 0.346 0.217 0.115 0.057 0.202 0.158 0.259 0.302 0.087 0.115 0.159 0.216 0.217 0.303 0.057 0.086 0.1 0.187 0.129 0.302 0.058 0.116 0.087 0.217 0.087 0.303 0.029 0.058 0.057 0.144 0.086 0.259l0.043 0.13c0.202 0.778 0.894 1.441 2.075 1.989 1.182 0.547 2.493 0.821 3.934 0.821 1.614 0 2.968-0.317 4.064-0.951 1.095-0.634 1.642-1.412 1.642-2.334 0-0.721-0.317-1.312-0.951-1.773-0.605-0.49-1.21-0.807-1.815-0.951-0.606-0.173-1.6-0.389-2.983-0.648-0.202-0.029-0.346-0.058-0.432-0.087-1.326-0.259-2.464-0.533-3.415-0.821-0.923-0.317-1.859-0.749-2.81-1.297-0.922-0.576-1.629-1.326-2.118-2.248-0.462-0.951-0.692-2.06-0.692-3.328 0-2.191 0.893-4.006 2.68-5.447 1.787-1.47 4.02-2.205 6.7-2.205 2.22 0 4.093 0.476 5.62 1.427 0.231-0.548 0.461-0.923 0.692-1.124 0.23-0.202 0.562-0.303 0.994-0.303 1.412 0 2.118 0.951 2.118 2.853z"/>
		<path d="m253.34 587.27c1.902 0 2.853 0.721 2.853 2.162s-0.951 2.161-2.853 2.161h-9.253c-1.902 0-2.853-0.72-2.853-2.161s0.951-2.162 2.853-2.162h0.649v-16.558h-0.649c-1.902 0-2.853-0.721-2.853-2.162s0.951-2.161 2.853-2.161h10.075c2.738 0 4.985 0.763 6.742 2.291 1.758 1.527 2.637 3.487 2.637 5.879 0 2.68-0.936 4.755-2.809 6.226-1.874 1.441-4.351 2.161-7.433 2.161h-4.237v4.323zm-4.28-16.558v7.913h5.101c1.498 0 2.666-0.346 3.501-1.038 0.865-0.72 1.297-1.686 1.297-2.896 0-1.239-0.432-2.205-1.297-2.896-0.835-0.721-2.003-1.081-3.501-1.081z"/>
		<path d="m279.58 565.77c1.354 0 2.723 0.289 4.106 0.865 1.384 0.547 2.666 1.354 3.848 2.421 1.21 1.037 2.19 2.449 2.939 4.236 0.778 1.758 1.167 3.718 1.167 5.879 0 3.545-1.196 6.599-3.587 9.162-2.364 2.565-5.188 3.847-8.472 3.847-3.343 0-6.197-1.282-8.562-3.847-2.334-2.594-3.501-5.72-3.501-9.378 0-3.631 1.181-6.729 3.545-9.294 2.363-2.594 5.201-3.891 8.513-3.891zm0 4.323c-2.104 0-3.92 0.879-5.447 2.637-1.527 1.729-2.291 3.805-2.291 6.226 0 2.45 0.749 4.553 2.248 6.31 1.527 1.729 3.357 2.594 5.49 2.594 2.104 0 3.919-0.865 5.447-2.594 1.527-1.729 2.291-3.79 2.291-6.184 0-2.478-0.764-4.596-2.291-6.352-1.499-1.758-3.315-2.637-5.447-2.637z"/>
		<path d="m310.5 587.27c1.902 0 2.853 0.721 2.853 2.162s-0.951 2.161-2.853 2.161h-9.985c-1.902 0-2.853-0.72-2.853-2.161s0.951-2.162 2.853-2.162h2.81v-16.558h-4.625v4.02c0 1.902-0.721 2.853-2.162 2.853-1.44 0-2.161-0.951-2.161-2.853v-8.346h22.305v8.346c0 1.902-0.721 2.853-2.162 2.853s-2.161-0.951-2.161-2.853v-4.02h-4.712v16.558z"/>
		<path d="m340.82 568.66v3.804c0 1.931-0.706 2.897-2.118 2.897-0.317 0-0.605-0.044-0.865-0.13-0.23-0.115-0.418-0.231-0.562-0.346-0.115-0.115-0.23-0.274-0.346-0.475-0.115-0.231-0.187-0.404-0.216-0.519s-0.072-0.274-0.129-0.476c-0.029-0.23-0.044-0.36-0.044-0.389-0.201-0.864-0.778-1.556-1.729-2.075-0.922-0.547-2.06-0.821-3.415-0.821-1.354 0-2.507 0.317-3.458 0.951s-1.427 1.412-1.427 2.334c0 0.577 0.144 1.081 0.433 1.513 0.317 0.404 0.807 0.735 1.469 0.995 0.663 0.23 1.196 0.403 1.6 0.518 0.432 0.116 1.066 0.245 1.902 0.389 1.095 0.202 2.046 0.418 2.853 0.649 0.836 0.202 1.715 0.504 2.637 0.908 0.922 0.403 1.671 0.879 2.248 1.426 0.605 0.519 1.095 1.196 1.47 2.032 0.403 0.836 0.605 1.787 0.605 2.853 0 2.248-0.908 4.063-2.724 5.447-1.815 1.383-4.207 2.075-7.174 2.075-2.392 0-4.64-0.562-6.743-1.686-0.576 0.691-1.153 1.037-1.729 1.037-1.47 0-2.205-0.951-2.205-2.853v-2.853c0-1.902 0.721-2.853 2.162-2.853 0.202 0 0.389 0.029 0.562 0.087 0.173 0.028 0.331 0.086 0.475 0.172 0.144 0.058 0.26 0.13 0.346 0.217 0.115 0.057 0.202 0.158 0.26 0.302 0.086 0.115 0.158 0.216 0.216 0.303 0.057 0.086 0.101 0.187 0.129 0.302 0.058 0.116 0.087 0.217 0.087 0.303 0.029 0.058 0.057 0.144 0.086 0.259l0.043 0.13c0.202 0.778 0.894 1.441 2.075 1.989 1.182 0.547 2.493 0.821 3.934 0.821 1.614 0 2.969-0.317 4.064-0.951s1.642-1.412 1.642-2.334c0-0.721-0.317-1.312-0.951-1.773-0.605-0.49-1.21-0.807-1.815-0.951-0.605-0.173-1.6-0.389-2.983-0.648-0.202-0.029-0.346-0.058-0.432-0.087-1.326-0.259-2.464-0.533-3.415-0.821-0.923-0.317-1.859-0.749-2.81-1.297-0.922-0.576-1.628-1.326-2.118-2.248-0.461-0.951-0.692-2.06-0.692-3.328 0-2.191 0.893-4.006 2.68-5.447 1.787-1.47 4.02-2.205 6.701-2.205 2.219 0 4.092 0.476 5.619 1.427 0.231-0.548 0.461-0.923 0.692-1.124 0.23-0.202 0.562-0.303 0.994-0.303 1.412 0 2.118 0.951 2.118 2.853z"/>
		<path d="m357.39 579.58-3.934 11.972h-4.798l-2.68-20.881c-1.326-0.173-1.989-0.865-1.989-2.075 0-1.499 0.951-2.248 2.853-2.248h5.663c1.931 0 2.896 0.72 2.896 2.161s-0.965 2.162-2.896 2.162h-2.075l1.556 11.755 3.286-9.768h4.495l3.286 9.768 1.513-11.755h-2.291c-1.902 0-2.853-0.721-2.853-2.162s0.951-2.161 2.853-2.161h5.663c1.902 0 2.853 0.72 2.853 2.161 0 1.211-0.678 1.931-2.032 2.162l-2.594 20.881h-4.755z"/>
		<path d="m383.33 565.77c1.354 0 2.723 0.289 4.107 0.865 1.383 0.547 2.665 1.354 3.847 2.421 1.21 1.037 2.19 2.449 2.939 4.236 0.778 1.758 1.168 3.718 1.168 5.879 0 3.545-1.196 6.599-3.588 9.162-2.364 2.565-5.187 3.847-8.472 3.847-3.343 0-6.197-1.282-8.562-3.847-2.334-2.594-3.501-5.72-3.501-9.378 0-3.631 1.181-6.729 3.545-9.294 2.363-2.594 5.201-3.891 8.513-3.891zm0 4.323c-2.104 0-3.92 0.879-5.447 2.637-1.527 1.729-2.291 3.805-2.291 6.226 0 2.45 0.749 4.553 2.248 6.31 1.527 1.729 3.357 2.594 5.49 2.594 2.104 0 3.919-0.865 5.447-2.594 1.527-1.729 2.291-3.79 2.291-6.184 0-2.478-0.764-4.596-2.291-6.352-1.499-1.758-3.315-2.637-5.447-2.637z"/>
		<path d="m409.27 565.77c1.354 0 2.723 0.289 4.107 0.865 1.383 0.547 2.665 1.354 3.847 2.421 1.21 1.037 2.19 2.449 2.939 4.236 0.779 1.758 1.168 3.718 1.168 5.879 0 3.545-1.196 6.599-3.588 9.162-2.364 2.565-5.187 3.847-8.472 3.847-3.343 0-6.197-1.282-8.562-3.847-2.334-2.594-3.501-5.72-3.501-9.378 0-3.631 1.182-6.729 3.545-9.294 2.363-2.594 5.201-3.891 8.513-3.891zm0 4.323c-2.104 0-3.92 0.879-5.447 2.637-1.527 1.729-2.291 3.805-2.291 6.226 0 2.45 0.749 4.553 2.248 6.31 1.527 1.729 3.357 2.594 5.49 2.594 2.104 0 3.919-0.865 5.447-2.594 1.527-1.729 2.291-3.79 2.291-6.184 0-2.478-0.764-4.596-2.291-6.352-1.499-1.758-3.315-2.637-5.447-2.637z"/>
		<path d="m425.41 587.27v-16.558c-1.758 0-2.636-0.721-2.636-2.162s0.965-2.161 2.896-2.161h9.162c3.141 0 5.779 1.153 7.913 3.458 2.161 2.306 3.242 5.159 3.242 8.562v2.031c0 3.343-1.066 6.037-3.199 8.082-2.104 2.046-4.869 3.069-8.297 3.069h-8.82c-1.931 0-2.896-0.721-2.896-2.162 0-0.691 0.23-1.224 0.691-1.599s1.11-0.562 1.946-0.562zm16.253-8.945c0-0.75-0.115-1.513-0.346-2.292-0.201-0.806-0.562-1.628-1.08-2.464-0.49-0.835-1.24-1.513-2.248-2.031-0.98-0.548-2.147-0.822-3.502-0.822h-4.755v16.559h4.798c2.277 0 4.035-0.605 5.274-1.815 1.24-1.211 1.859-2.925 1.859-5.145z"/>
		<path d="m462.34 573.58c1.441 0 2.161 0.966 2.161 2.897v4.885c0 1.902-0.706 2.853-2.118 2.853-1.441 0-2.162-0.951-2.162-2.853v-0.303h-3.674v6.184h11.065v-2.248c0-1.931 0.721-2.896 2.162-2.896s2.161 0.965 2.161 2.896v6.568h-20.359c-1.902 0-2.853-0.72-2.853-2.161s0.951-2.161 2.853-2.161h0.648v-16.559h-0.648c-1.902 0-2.853-0.721-2.853-2.162s0.951-2.161 2.853-2.161h19.411v6.484c0 1.931-0.721 2.896-2.162 2.896s-2.161-0.965-2.161-2.896v-2.161h-10.117v6.094h3.674v-0.303c0-1.931 0.707-2.896 2.119-2.896z"/>
		<path d="m1011.5 162.25c-1.9 0-2.85-0.721-2.85-2.162s0.95-2.161 2.85-2.161h1.52v-12.495l-4.8 10.85h-3.94l-5.097-10.85v12.495h1.517c1.9 0 2.85 0.72 2.85 2.161s-0.95 2.162-2.85 2.162h-5.581c-1.93 0-2.896-0.721-2.896-2.162s0.879-2.161 2.637-2.161v-16.559c-1.498-0.144-2.248-0.879-2.248-2.205 0-0.663 0.231-1.181 0.692-1.556 0.49-0.375 1.153-0.562 1.988-0.562h4.888l5.96 12.836 5.84-12.836h4.75c1.91 0 2.86 0.72 2.86 2.161 0 1.297-0.75 2.018-2.25 2.162v16.559c1.76 0 2.64 0.72 2.64 2.161s-0.96 2.162-2.86 2.162z"/>
		<path d="m1036.7 162.25c-1.9 0-2.85-0.721-2.85-2.162s0.95-2.161 2.85-2.161h1l-1-2.508h-10.29l-0.99 2.508h0.99c1.9 0 2.85 0.72 2.85 2.161s-0.95 2.162-2.85 2.162h-5.75c-1.9 0-2.85-0.721-2.85-2.162s0.96-2.161 2.9-2.161l6.7-16.559h-2.73c-1.93 0-2.89-0.721-2.89-2.162s0.96-2.161 2.89-2.161h9.34l8.6 20.882c1.96 0 2.94 0.72 2.94 2.161s-0.95 2.162-2.85 2.162zm-1.77-11.156-3.37-8.297-3.42 8.297z"/>
		<path d="m1052.3 145.2v12.711h1.52c1.9 0 2.85 0.72 2.85 2.161s-0.95 2.162-2.85 2.162h-5.58c-1.93 0-2.9-0.721-2.9-2.162s0.88-2.161 2.64-2.161v-16.559h-0.65c-1.9 0-2.85-0.721-2.85-2.162s0.95-2.161 2.85-2.161h4.97l11.16 16.943v-12.62h-1.52c-1.9 0-2.85-0.721-2.85-2.162s0.95-2.161 2.85-2.161h5.62c1.91 0 2.86 0.72 2.86 2.161s-0.88 2.162-2.64 2.162v20.882h-4.28z"/>
		<path d="m1078.1 145.2v12.711h1.52c1.9 0 2.85 0.72 2.85 2.161s-0.95 2.162-2.85 2.162h-5.58c-1.93 0-2.9-0.721-2.9-2.162s0.88-2.161 2.64-2.161v-16.559h-0.65c-1.9 0-2.85-0.721-2.85-2.162s0.95-2.161 2.85-2.161h4.97l11.16 16.943v-12.62h-1.52c-1.9 0-2.85-0.721-2.85-2.162s0.95-2.161 2.85-2.161h5.62c1.91 0 2.86 0.72 2.86 2.161s-0.88 2.162-2.64 2.162v20.882h-4.28z"/>
		<path d="m1103.4 162.25c-1.9 0-2.85-0.721-2.85-2.162s0.95-2.161 2.85-2.161h4.37v-16.559h-4.37c-1.9 0-2.85-0.721-2.85-2.162s0.95-2.161 2.85-2.161h13.05c1.9 0 2.86 0.72 2.86 2.161s-0.96 2.162-2.86 2.162h-4.36v16.559h4.36c1.9 0 2.86 0.72 2.86 2.161s-0.96 2.162-2.86 2.162z"/>
		<path d="m1123.8 139.19c0-1.441 0.95-2.161 2.86-2.161h3.93c1.93 0 2.9 0.72 2.9 2.161 0 0.894-0.55 1.6-1.65 2.119l4.11 4.711 4.02-4.711c-1.09-0.548-1.64-1.254-1.64-2.119 0-1.441 0.96-2.161 2.89-2.161h3.9c1.9 0 2.85 0.72 2.85 2.161 0 0.663-0.23 1.196-0.69 1.6-0.44 0.375-1.03 0.562-1.78 0.562l-6.78 8.039 7.22 8.514c0.8 0 1.42 0.201 1.86 0.605 0.46 0.375 0.69 0.893 0.69 1.556 0 1.441-0.95 2.162-2.86 2.162h-4.79c-1.91 0-2.86-0.721-2.86-2.162 0-0.663 0.2-1.181 0.61-1.556 0.43-0.404 1.02-0.605 1.77-0.605l-4.37-5.188-4.41 5.188c0.73 0 1.29 0.201 1.69 0.605 0.43 0.375 0.65 0.893 0.65 1.556 0 1.441-0.95 2.162-2.85 2.162h-4.8c-1.9 0-2.86-0.721-2.86-2.162 0-0.663 0.22-1.181 0.65-1.556 0.46-0.404 1.1-0.605 1.91-0.605l7.17-8.562-6.83-7.997c-0.78 0-1.4-0.188-1.86-0.562-0.43-0.404-0.65-0.937-0.65-1.6z"/>
		<path d="m878.77 459.92c-1.902 0-2.853-0.721-2.853-2.162 0-1.44 0.951-2.161 2.853-2.161h1.513v-12.494l-4.798 10.849h-3.934l-5.101-10.849v12.494h1.513c1.902 0 2.853 0.721 2.853 2.161 0 1.441-0.951 2.162-2.853 2.162h-5.577c-1.93 0-2.896-0.721-2.896-2.162 0-1.44 0.879-2.161 2.637-2.161v-16.559c-1.499-0.144-2.248-0.879-2.248-2.204 0-0.663 0.231-1.182 0.692-1.557 0.49-0.374 1.153-0.562 1.988-0.562h4.885l5.966 12.837 5.835-12.837h4.756c1.902 0 2.853 0.721 2.853 2.162 0 1.297-0.75 2.017-2.248 2.161v16.559c1.758 0 2.637 0.721 2.637 2.161 0 1.441-0.951 2.162-2.853 2.162z"/>
		<path d="m904.59 459.92c-1.902 0-2.853-0.721-2.853-2.162 0-1.44 0.951-2.161 2.853-2.161h0.994l-0.994-2.507h-10.291l-0.994 2.507h0.994c1.902 0 2.853 0.721 2.853 2.161 0 1.441-0.951 2.162-2.853 2.162h-5.749c-1.902 0-2.853-0.721-2.853-2.162 0-1.44 0.965-2.161 2.896-2.161l6.7-16.559h-2.723c-1.931 0-2.896-0.72-2.896-2.161s0.965-2.162 2.896-2.162h9.336l8.604 20.882c1.959 0 2.939 0.721 2.939 2.161 0 1.441-0.951 2.162-2.853 2.162zm-1.772-11.155-3.372-8.298-3.415 8.298z"/>
		<path d="m922 455.6c1.902 0 2.853 0.721 2.853 2.161 0 1.441-0.951 2.162-2.853 2.162h-6.484c-1.902 0-2.853-0.721-2.853-2.162 0-1.44 0.951-2.161 2.853-2.161h0.648v-16.559h-0.648c-1.902 0-2.853-0.72-2.853-2.161s0.951-2.162 2.853-2.162h9.642c2.796 0 5.073 0.721 6.833 2.162 1.787 1.412 2.68 3.256 2.68 5.533 0 2.651-1.556 4.827-4.669 6.526 1.874 1.643 3.689 3.862 5.447 6.659h0.562c1.902 0 2.853 0.72 2.853 2.161s-0.951 2.161-2.853 2.161h-3.415c-1.066-2.074-2.435-4.106-4.107-6.094-1.642-2.017-2.925-3.184-3.847-3.501h-4.15v5.274zm-1.513-9.594h3.286c1.815 0 3.314-0.346 4.495-1.038 1.211-0.72 1.816-1.614 1.816-2.68 0-0.922-0.447-1.686-1.34-2.291-0.893-0.634-2.032-0.951-3.415-0.951h-4.842z"/>
		<path d="m947.82 455.6c1.902 0 2.853 0.721 2.853 2.161 0 1.441-0.951 2.162-2.853 2.162h-6.484c-1.902 0-2.853-0.721-2.853-2.162 0-1.44 0.951-2.161 2.853-2.161h0.648v-16.559h-0.648c-1.902 0-2.853-0.72-2.853-2.161s0.951-2.162 2.853-2.162h6.484c1.902 0 2.853 0.721 2.853 2.162s-0.951 2.161-2.853 2.161h-1.513v6.442l7.697-6.616c-0.893-0.346-1.34-0.994-1.34-1.945 0-1.47 0.951-2.205 2.853-2.205h4.323c1.902 0 2.853 0.721 2.853 2.162s-0.893 2.161-2.68 2.161l-7.607 6.616c2.796 1.47 5.231 4.784 7.307 9.943h1.383c1.902 0 2.853 0.72 2.853 2.161s-0.951 2.162-2.853 2.162h-4.755c-1.009-3.084-2.176-5.62-3.501-7.607-1.297-1.989-2.609-3.185-3.934-3.588l-2.594 2.204v4.669z"/>
		<path d="m982.04 449.54h-9.252v6.094h0.648c1.902 0 2.853 0.721 2.853 2.161 0 1.441-0.951 2.162-2.853 2.162h-5.231c-1.902 0-2.853-0.721-2.853-2.162 0-1.44 0.951-2.161 2.853-2.161h0.26v-16.559c-1.499-0.144-2.248-0.864-2.248-2.161 0-1.441 0.951-2.162 2.853-2.162h4.366c1.902 0 2.853 0.721 2.853 2.162s-0.951 2.161-2.853 2.161h-0.648v6.136h9.252v-6.136h-0.649c-1.902 0-2.853-0.72-2.853-2.161s0.951-2.162 2.853-2.162h4.366c1.902 0 2.853 0.721 2.853 2.162 0 1.297-0.749 2.017-2.247 2.161v16.559h0.259c1.902 0 2.853 0.721 2.853 2.161 0 1.441-0.951 2.162-2.853 2.162h-5.231c-1.902 0-2.853-0.721-2.853-2.162 0-1.44 0.951-2.161 2.853-2.161h0.649z"/>
		<path d="m1007.9 459.92c-1.9 0-2.85-0.721-2.85-2.162 0-1.44 0.95-2.161 2.85-2.161h1l-1-2.507h-10.288l-0.994 2.507h0.994c1.902 0 2.848 0.721 2.848 2.161 0 1.441-0.946 2.162-2.848 2.162h-5.749c-1.903 0-2.854-0.721-2.854-2.162 0-1.44 0.966-2.161 2.897-2.161l6.7-16.559h-2.723c-1.931 0-2.897-0.72-2.897-2.161s0.966-2.162 2.897-2.162h9.337l8.6 20.882c1.96 0 2.94 0.721 2.94 2.161 0 1.441-0.95 2.162-2.85 2.162zm-1.77-11.155-3.37-8.298-3.417 8.298z"/>
		<path d="m1034.3 459.92c-1.9 0-2.85-0.721-2.85-2.162 0-1.44 0.95-2.161 2.85-2.161h1.52v-12.494l-4.8 10.849h-3.94l-5.1-10.849v12.494h1.52c1.9 0 2.85 0.721 2.85 2.161 0 1.441-0.95 2.162-2.85 2.162h-5.58c-1.93 0-2.9-0.721-2.9-2.162 0-1.44 0.88-2.161 2.64-2.161v-16.559c-1.5-0.144-2.25-0.879-2.25-2.204 0-0.663 0.23-1.182 0.69-1.557 0.49-0.374 1.16-0.562 1.99-0.562h4.89l5.96 12.837 5.84-12.837h4.75c1.91 0 2.86 0.721 2.86 2.162 0 1.297-0.75 2.017-2.25 2.161v16.559c1.76 0 2.64 0.721 2.64 2.161 0 1.441-0.95 2.162-2.86 2.162z"/>
		<path d="m823.54 36.581 0.432 0.1729c0.49-0.6917 1.095-1.0375 1.816-1.0375 1.441 0 2.161 0.951 2.161 2.8531v3.6312c0 1.902-0.72 2.853-2.161 2.853-0.663 0-1.139-0.1729-1.427-0.5187s-0.519-0.9366-0.692-1.7724c-0.201-1.0086-0.922-1.8156-2.161-2.4208-1.21-0.6052-2.522-0.9078-3.934-0.9078-2.19 0-4.006 0.7493-5.447 2.2479-1.441 1.4698-2.161 3.343-2.161 5.6197v2.7666c0 2.1614 0.764 3.8906 2.291 5.1874 1.556 1.2969 3.632 1.9453 6.226 1.9453 0.749 0 1.427-0.0432 2.032-0.1297 0.634-0.1153 1.138-0.2161 1.513-0.3026 0.375-0.1153 0.749-0.2882 1.124-0.5187 0.403-0.2594 0.663-0.4323 0.778-0.5188 0.115-0.1152 0.303-0.317 0.562-0.6052l0.389-0.389c0.461-0.4611 0.98-0.6917 1.556-0.6917 0.577 0 1.081 0.2162 1.513 0.6485 0.432 0.4322 0.649 0.9366 0.649 1.5129 0 1.2104-0.966 2.4064-2.897 3.588-1.931 1.1528-4.38 1.7291-7.348 1.7291-3.66 0-6.7-1.0663-9.12-3.1989-2.392-2.1614-3.588-4.8852-3.588-8.1713v-2.8531c0-3.4583 1.124-6.3542 3.371-8.6877 2.248-2.3335 5.044-3.5007 8.388-3.5015 2.017 0 4.063 0.4899 6.136 1.4698z"/>
		<path d="m834.34 60.903c-1.902 0-2.853-0.7204-2.853-2.1614 0-1.4409 0.951-2.1614 2.853-2.1614h2.464v-16.559h-2.464c-1.902 0-2.853-0.7204-2.853-2.1614 0-1.4409 0.951-2.1614 2.853-2.1614h9.252c1.902 0 2.853 0.7205 2.853 2.1614 0 1.441-0.951 2.1614-2.853 2.1614h-2.464v16.559h9.294v-3.977c0-1.9309 0.72-2.8963 2.161-2.8963s2.162 0.9654 2.162 2.8963v8.2974z"/>
		<path d="m870.37 42.933c1.441 0 2.162 0.9655 2.162 2.8963v4.8848c0 1.9021-0.706 2.8531-2.118 2.8531-1.441 0-2.162-0.951-2.162-2.8531v-0.3026h-3.674v6.1841h11.065v-2.2479c0-1.9308 0.721-2.8963 2.162-2.8963 1.44 0 2.161 0.9655 2.161 2.8963v6.5683h-20.359c-1.902 0-2.853-0.7204-2.853-2.1614 0-1.4409 0.951-2.1614 2.853-2.1614h0.648v-16.559h-0.648c-1.902 0-2.853-0.7204-2.853-2.1614 0-1.4409 0.951-2.1614 2.853-2.1614h19.41v6.4843c0 1.9308-0.72 2.8963-2.161 2.8963s-2.162-0.9655-2.162-2.8963v-2.1615h-10.116v6.094h3.674v-0.3026c0-1.9308 0.706-2.8963 2.118-2.8963z"/>
		<path d="m899.79 60.903c-1.902 0-2.853-0.7204-2.853-2.1614 0-1.4409 0.951-2.1614 2.853-2.1614h0.994l-0.994-2.5073h-10.291l-0.994 2.5073h0.994c1.902 0 2.853 0.7205 2.853 2.1614 0 1.441-0.951 2.1614-2.853 2.1614h-5.749c-1.902 0-2.853-0.7204-2.853-2.1614 0-1.4409 0.965-2.1614 2.896-2.1614l6.7-16.559h-2.723c-1.931 0-2.896-0.7204-2.896-2.1614 0-1.4409 0.965-2.1614 2.896-2.1614h9.336l8.604 20.882c1.959 0 2.939 0.7205 2.939 2.1614 0 1.441-0.951 2.1614-2.853 2.1614zm-1.773-11.155-3.371-8.2974-3.415 8.2974z"/>
		<path d="m920.8 54.695 6.226-14.656h-1.038c-1.902 0-2.853-0.7204-2.853-2.1614 0-1.4409 0.951-2.1614 2.853-2.1614h5.706c1.902 0 2.853 0.7205 2.853 2.1614 0 1.441-0.979 2.1614-2.939 2.1614l-8.862 20.882h-4.28l-8.729-20.882c-1.96 0-2.94-0.7204-2.94-2.1614 0-1.4409 0.951-2.1614 2.853-2.1614h5.75c1.902 0 2.853 0.7205 2.853 2.1614 0 1.441-0.951 2.1614-2.853 2.1614h-0.822z"/>
		<path d="m947.82 42.933c1.441 0 2.162 0.9655 2.162 2.8963v4.8848c0 1.9021-0.706 2.8531-2.119 2.8531-1.44 0-2.161-0.951-2.161-2.8531v-0.3026h-3.674v6.1841h11.065v-2.2479c0-1.9308 0.72-2.8963 2.161-2.8963s2.162 0.9655 2.162 2.8963v6.5683h-20.36c-1.902 0-2.853-0.7204-2.853-2.1614 0-1.4409 0.951-2.1614 2.853-2.1614h0.649v-16.559h-0.649c-1.902 0-2.853-0.7204-2.853-2.1614 0-1.4409 0.951-2.1614 2.853-2.1614h19.411v6.4843c0 1.9308-0.72 2.8963-2.161 2.8963s-2.162-0.9655-2.162-2.8963v-2.1615h-10.116v6.094h3.674v-0.3026c0-1.9308 0.706-2.8963 2.118-2.8963z"/>
		<path d="m969.43 56.592c1.902 0 2.854 0.7205 2.854 2.1614 0 1.441-0.952 2.1614-2.854 2.1614h-6.484c-1.902 0-2.853-0.7204-2.853-2.1614 0-1.4409 0.951-2.1614 2.853-2.1614h0.649v-16.559h-0.649c-1.902 0-2.853-0.7204-2.853-2.1614 0-1.4409 0.951-2.1614 2.853-2.1614h9.643c2.795 0 5.072 0.7205 6.832 2.1614 1.787 1.4121 2.68 3.2566 2.68 5.5332 0 2.6514-1.556 4.8268-4.669 6.5263 1.874 1.6427 3.689 3.8622 5.447 6.6584h0.562c1.902 0 2.853 0.7205 2.853 2.1614 0 1.441-0.951 2.1614-2.853 2.1614h-3.415c-1.066-2.0749-2.435-4.1063-4.106-6.094-1.643-2.0173-2.926-3.1845-3.848-3.5015h-4.15v5.2739zm-1.513-9.5943h3.286c1.815 0 3.314-0.3458 4.496-1.0375 1.21-0.7205 1.815-1.6138 1.815-2.6801 0-0.9222-0.447-1.6859-1.34-2.2911-0.893-0.6341-2.032-0.9511-3.415-0.9511h-4.842z"/>
	</g>
</svg>
