<?xml version="1.0" encoding="utf-8"?>
<svg xmlns="http://www.w3.org/2000/svg" version="1.1" viewBox="0 0 1267 1536">
	<title>The latch of a door bolt set at an angle, with a pair of tweezers clipped onto it lengthwise. A string hangs down from the handle of the tweezers.</title>
	<path d="m331.24 1528.3c-1.1092-1.3365-0.69629-48.171 0.71783-81.432 1.2356-29.061 1.2583-48.672 0.0606-52.301-0.80827-2.4492-0.82514-4.2152-0.0673-7.0503 1.022-3.8234 1.3598-30.814 0.67847-54.199-0.19653-6.7448-0.34621-21.257-0.33263-32.248 0.0135-10.992-3e-3 -25.708-0.0357-32.702-0.0332-6.9947-0.0284-16.397 0.0105-20.893 0.039-4.4966-0.0636-11.65-0.22793-15.897-0.16435-4.2468-0.28141-10.787-0.26013-14.534 0.0462-8.1185 0.12501-51.744 0.17334-95.836 0.0192-17.487 0.0843-33.225 0.1448-34.974 0.12333-3.5664 0.13835-9.2187 0.0495-18.622-0.0331-3.4973-0.0997-33.311-0.14819-66.253-0.075-51.023-0.28752-60.28-1.4346-62.498-0.74059-1.4321-1.1059-3.3621-0.8118-4.2888 0.2941-0.92657 0.51117-16.133 0.48238-33.793-0.0288-17.659-9.1e-4 -33.334 0.0619-34.833 0.0629-1.4989 0.10467-41.355 0.0929-88.569-0.0118-47.214 0.0261-91.567 0.0841-98.562 0.0581-6.9947-0.0238-25.594-0.18184-41.332-0.15807-15.738-0.26571-48.772-0.2392-73.41 0.0332-30.875-0.29407-46.965-1.0532-51.779-0.60579-3.8413-0.88566-8.4148-0.62193-10.164 0.66415-4.4036 0.48127-69.179-0.38982-138.08-0.40112-31.726-0.81615-68.721-0.92229-82.21-0.10613-13.49-0.22919-27.593-0.27345-31.34-0.0442-3.7472-0.0765-11.514-0.0715-17.26 0.0296-34.366-0.30155-66.442-0.72439-70.174-0.36439-3.2159-0.87211-4.314-1.9934-4.3115-2.7748 6e-3 -7.3194 3.5269-9.1274 7.0708-0.98537 1.9315-5.2529 6.7882-9.4835 10.793-6.1394 5.8114-8.5812 7.5133-12.098 8.4317-2.4235 0.63286-5.6326 1.674-7.1315 2.3136-1.4989 0.63963-3.7472 1.4679-4.9962 1.8406-1.2491 0.37268-3.0773 1.2357-4.0628 1.9178-2.8008 1.9386-7.4998 1.5815-8.7001-0.66117-1.3448-2.5129-0.60454-5.1046 2.801-9.8057 3.1271-4.3169 6.1989-5.8905 15.169-7.7707l6.0982-1.2783 4.8104-5.2919c2.6457-2.9105 5.6498-6.8656 6.6757-8.7891 1.718-3.2211 3.4607-5.2124 14.827-16.942 2.1787-2.2483 4.2394-4.6037 4.5794-5.2343 0.89911-1.6678-4.7207-10.977-8.9985-14.906-13.073-12.007-23.271-22.24-23.771-23.854-0.32053-1.0344-1.3472-2.9664-2.2815-4.2934-3.1159-4.4256-7.6464-12.978-9.3086-17.572-0.90385-2.4981-2.218-5.8301-2.9203-7.4045s-1.2769-4.7342-1.2769-7.0217c0-2.2876-0.57841-5.7004-1.2854-7.5841-0.70694-1.8837-1.5362-5.2051-1.8428-7.381-0.30659-2.1758-1.1859-5.1715-1.9541-6.6569-1.1866-2.2947-1.2274-3.4074-0.27083-7.399 0.61921-2.584 1.3616-7.7226 1.6498-11.419 0.45947-5.8943 0.81834-6.9401 2.9177-8.5022l2.3938-1.7812 3.9651 2.2899c2.2171 1.2804 6.7016 2.7045 10.172 3.2305 3.4141 0.51734 6.6876 1.3391 7.2744 1.8261 1.1638 0.96583 4.9001 2.3876 17.404 6.6226 4.4966 1.523 9.402 3.3013 10.901 3.9518 1.4989 0.65051 5.1779 1.9812 8.1756 2.957 3.8726 1.2607 8.6632 4.199 16.549 10.15 6.1041 4.6068 11.904 9.6791 12.888 11.272 0.98433 1.5927 2.8827 3.9108 4.2186 5.1513s3.9755 4.5203 5.8658 7.2883 4.1249 5.6038 4.9659 6.3018c0.84094 0.69792 2.5666 3.3166 3.8349 5.8194 3.5118 6.9302 7.6735 12.134 11.006 13.762 1.654 0.80809 3.2478 2.1537 3.5419 2.9903 0.29409 0.83658 1.3757 2.4548 2.4036 3.596 1.6284 1.8079 1.7322 2.4372 0.80609 4.8906-1.1838 3.1364-0.72843 4.4624 3.3795 9.84 1.3358 1.7487 3.1368 4.6101 4.0021 6.3588 0.86534 1.7487 2.7725 5.0189 4.2381 7.2672s2.9078 4.701 3.2049 5.4504c2.9937 7.5515 4.4538 10.952 5.9289 13.806 0.95479 1.8477 1.736 4.5794 1.736 6.0705 0 1.7711 0.55117 2.898 1.5897 3.25 0.87433 0.29637 4.0424 2.8069 7.0401 5.579s8.3985 7.2627 12.002 9.9791c3.6032 2.7164 7.836 6.5377 9.4063 8.4916 1.5703 1.954 4.0486 4.0471 5.5075 4.6514 2.3469 0.97212 5.654 4.5021 16.474 17.585 1.6163 1.9542 4.7663 5.2244 7.0001 7.2672 7.7142 7.0547 13.734 13.734 19.311 21.428 3.0785 4.2468 7.3569 9.7074 9.5076 12.135 2.1507 2.4272 3.9103 4.7256 3.9103 5.1075 0 0.58965 6.5286 9.2981 10.208 13.616 2.7899 3.2743 7.8015 10.017 11.14 14.988 1.9985 2.9758 5.8979 7.8786 8.6654 10.895 4.9662 5.4129 10.076 12.846 15.103 21.968 3.2787 5.9502 9.0608 14.645 11.692 17.582 1.1191 1.249 2.3289 3.2421 2.6884 4.429 0.35951 1.1869 3.4804 5.2065 6.9352 8.9326s7.0863 8.3521 8.0698 10.28 3.1489 4.5431 4.8119 5.8115 4.55 4.9163 6.4156 8.1063c3.7462 6.4058 11.063 15.794 13.471 17.286 0.85038 0.52671 1.799 0.70477 2.1081 0.39571 0.30907-0.30907 0.57153-5.4044 0.58326-11.323 0.0117-5.9185 0.0781-16.688 0.14757-23.933 0.15918-16.606 0.14949-24.798-0.0462-39.061-0.23544-17.157 0.89449-34.895 2.333-36.624 1.0188-1.2244 2.5913-1.3889 9.483-0.99162 4.5439 0.26191 8.5668 0.66483 8.9398 0.89539 0.37303 0.23054 17.976 0.64777 39.117 0.92717 38.183 0.50462 45.734 0.72333 57.061 1.6526 3.2475 0.26645 12.445 0.55609 20.439 0.64364 11.979 0.13121 15.15-0.11365 18.037-1.3923 3.0542-1.353 5.4373-1.4711 18.622-0.92325 8.316 0.34556 19.821 0.80887 25.567 1.0296 9.6712 0.37152 75.25 0.86223 151.25 1.1318 20.472 0.0726 32.688 0.46424 34.304 1.0998 3.3191 1.3054 3.995 4.4404 2.1962 10.187-1.581 5.0512-1.5187-0.64281-1.7852 163.17-0.066 40.719-0.059 77.918 0.015 82.665 0.075 4.7464 0.06 32.135-0.032 60.863s-0.128 61.226-0.08 72.218 0.115 38.176 0.1478 60.409c0.033 22.233 0.1493 42.263 0.2589 44.512 0.1097 2.2483 0.081 39.652-0.064 83.119s0.045 81.344 0.4229 84.172l0.6866 5.1406-2.1382 1.3416c-2.9502 1.851-16.243 3.7173-21.505 3.0192-2.385-0.3163-13.515-0.79767-24.733-1.0696-11.218-0.27189-21.01-0.75507-21.759-1.0738-0.74943-0.31876-33.861-0.69193-73.581-0.82929-39.72-0.13735-89.591-0.46373-110.83-0.72535s-54.345-0.65969-73.581-0.88452c-19.235-0.22492-37.906-0.68357-41.49-1.0194-5.2352-0.49053-6.927-0.32293-8.6048 0.85227-2.7866 1.9518-5.4957 1.8447-8.2556-0.32621-3.0812-2.4237-3.7476-6.4421-1.8534-11.176 1.473-3.6815 1.7066-15.21 1.1452-56.528-0.0272-1.9985 0.0419-25.095 0.15337-51.325 0.14216-33.441-0.097-48.241-0.80051-49.531-0.66064-1.2118-0.70551-2.3723-0.1314-3.3982 1.1162-1.9945 1.6115-16.145 1.7424-49.78 0.089-22.86-0.12688-27.661-1.4503-32.248-0.85516-2.9645-2.309-6.8207-3.2308-8.5694-2.3823-4.5193-4.0753-8.6683-6.3015-15.443-1.0672-3.2475-2.7214-7.6375-3.6761-9.7554-0.95466-2.118-1.7357-4.2836-1.7357-4.8125 0-0.52892-1.0145-1.9019-2.2544-3.051-1.6096-1.4918-2.6588-4.0124-3.6683-8.8136-0.77764-3.6983-2.4202-8.177-3.6502-9.9525-1.3942-2.0125-2.2363-4.4973-2.2363-6.5982 0-1.8535-0.37442-4.0798-0.83204-4.9474-1.9849-3.7629-3.6847-8.3118-4.5518-12.181-0.513-2.2891-2.373-6.3489-4.1332-9.0218-1.7603-2.6728-3.2005-5.38-3.2005-6.016 0-0.63592-0.42877-1.1562-0.95282-1.1562s-1.6482-1.5382-2.4981-3.4181c-0.84991-1.88-2.3912-4.6392-3.4251-6.1317s-2.7642-5.0822-3.8452-7.9772-2.9129-6.574-4.0709-8.1756-2.6504-4.1384-3.3165-5.6373c-0.66602-1.4989-1.6631-3.7472-2.2157-4.9962s-3.0958-5.7647-5.6516-10.035c-2.5558-4.27-5.1641-9.3798-5.7963-11.355-2.2167-6.9264-11.961-25.456-16.767-31.885-2.6695-3.5707-5.352-8.0673-5.9611-9.9924-0.60908-1.9251-2.0619-4.931-3.2284-6.6796-1.1666-1.7487-2.7923-5.2233-3.6128-7.7214s-3.703-8.4476-6.4057-13.221c-2.7027-4.7735-5.5931-10.701-6.4232-13.172-0.83007-2.471-2.5976-6.1279-3.9277-8.1264-1.3302-1.9985-4.2078-7.2355-6.3946-11.638-2.1868-4.4023-4.2975-8.2029-4.6903-8.4457-0.68443-0.42301-6.1991-11.782-6.1991-12.769 0-0.26272-0.84271-1.6612-1.8727-3.1076-3.3485-4.7026-11.845-21.676-13.971-27.908-1.1402-3.3434-3.7278-9.5535-5.75-13.8-2.0223-4.2468-3.9503-8.9478-4.2844-10.447-0.33409-1.4989-1.1371-3.3384-1.7844-4.0878-0.64735-0.74943-1.6907-2.9977-2.3186-4.9962-0.62789-1.9985-1.4294-4.0424-1.7812-4.542-0.35176-0.49962-1.5509-3.8641-2.6648-7.4766s-2.408-6.8046-2.8757-7.0937c-0.46774-0.28908-0.85043-1.0965-0.85043-1.7942s-1.0213-2.7736-2.2696-4.613-2.6981-4.9357-3.2218-6.8807c-0.52373-1.945-2.1521-5.8491-3.6187-8.6757s-3.3039-7.0584-4.083-9.404c-0.77908-2.3456-2.2172-4.9893-3.1958-5.8749s-1.7793-2.1025-1.7793-2.7041c0-0.60164-1.4147-4.1559-3.1438-7.8983s-3.8011-8.8076-4.6043-11.256c-0.80328-2.4483-2.25-6.1843-3.215-8.3023-0.96496-2.118-1.7545-4.0771-1.7545-4.3537s-1.5739-2.6334-3.4974-5.2372c-1.9236-2.6039-4.2741-6.2187-5.2233-8.033-0.94923-1.8143-4.0573-5.9003-6.9068-9.08-11.389-12.709-14.413-16.709-17.648-23.346-1.856-3.807-5.0692-8.7705-7.1405-11.03-2.0713-2.2594-4.9174-6.1519-6.3245-8.65s-3.2894-5.3596-4.1826-6.3588-4.006-5.339-6.9172-9.6438c-7.0011-10.353-10.932-14.725-12.646-14.067-1.4211 0.54532-3.6997 5.7822-3.2023 7.3599 0.31847 1.0102 0.75312 32.004 1.516 108.1 0.46396 46.281 0.5921 74.433 0.50029 109.92-0.0181 6.9947 0.20025 27.025 0.48521 44.512 0.28495 17.487 0.47055 33.225 0.41243 34.974-0.25157 7.5698-0.32007 105.1-0.0836 119 0.20074 11.802 0.74336 72.61 0.78224 87.661 0.0219 8.4936 0.12651 16.26 0.23236 17.26 0.10586 0.99925 0.15127 4.2695 0.10093 7.2672-0.0503 2.9977-0.0423 8.7207 0.0178 12.718 0.0601 3.997 0.0236 9.4133-0.0812 12.036-0.22492 5.6287-0.2219 7.6656 0.11382 76.533 0.15237 31.255 0.61211 53.703 1.1163 54.504 0.90889 1.4447 0.78547 30.021-0.21969 50.871-0.32517 6.7449-0.56406 14.103-0.53087 16.351 0.2304 15.606 0.42886 61.771 0.33193 77.214-0.0643 10.242 0.24897 21.688 0.6961 25.435 0.44715 3.7471 0.56599 20.303 0.2641 36.79s-0.46966 37.744-0.37283 47.237c0.14111 13.835 0.13297 48.768-0.0141 60.409-0.11968 9.4739 1.396 33.568 2.2624 35.964 0.87309 2.4146 0.82061 3.3322-0.28588 4.9987-1.0716 1.6139-1.1808 3.0542-0.52159 6.8802 0.52367 3.0395 0.50643 5.7779-0.0463 7.3636-0.53883 1.5456-0.68923 14.138-0.38792 32.478 0.27067 16.474 0.4897 37.107 0.48672 45.851-0.013 38.31-0.15119 74.878-0.36722 97.199-0.12814 13.24-0.1227 36.132 0.0121 50.871 0.41461 45.334 0.46447 43.202-1.5722 67.222-1.0774 12.707-2.2155 17.462-4.7973 20.044-2.0397 2.0397-5.6236 2.3047-7.1006 0.5249zm641.23-595.67 2.279-0.86852 0.42839-22.464c0.23562-12.355 0.31546-26.618 0.17743-31.695-0.13803-5.0775 0.10817-9.4537 0.54712-9.725 0.45079-0.2786 0.61929-21.758 0.3872-49.36-0.22599-26.877-0.37476-50.298-0.33062-52.046 0.0441-1.7487 0.0297-19.326-0.0321-39.061s0.0309-41.196 0.20595-47.691c0.17507-6.4951 0.30036-15.488 0.27843-19.985-0.0219-4.4966-0.0118-16.964 0.0224-27.706 0.0343-10.742 0.0305-22.801-8e-3 -26.798-0.0389-3.997-0.13686-27.911-0.2177-53.142-0.0808-25.231-0.54033-53.161-1.0211-62.067-0.7528-13.946-0.67851-16.656 0.53536-19.531 0.95425-2.2598 1.2449-4.8045 0.90008-7.8796-0.61766-5.5078-1.7509-61.456-1.5272-75.397 0.17793-11.089 0.86952-34.692 1.3043-44.512 0.15483-3.4974-0.27336-8.5809-0.95152-11.297-0.67816-2.7158-0.98482-5.5773-0.68145-6.3588 0.5481-1.412 1.6292-16.766 1.731-24.585l0.0532-4.0878-26.344-0.32337c-14.489-0.17786-32.271-0.30257-39.516-0.27714-113.34 0.39785-270.59-0.77908-277.52-2.077-5.2166-0.9771-6.6143 0.86865-6.8428 9.0363-0.43255 15.464 0.16576 80.041 0.75011 80.96 0.35601 0.55972 4.7351 1.7401 9.7313 2.623 9.5007 1.679 14.808 3.8594 22.594 9.2821 13.745 9.5732 17.352 13.521 23.516 25.74 5.4037 10.712 7.4263 18.442 6.5859 25.168-0.7434 5.95-3.1425 11.829-5.7955 14.202-1.064 0.95177-1.9345 2.3264-1.9345 3.0547s1.8395 3.7714 4.0878 6.7622c2.2483 2.9909 4.0929 5.9085 4.0991 6.4835 6e-3 0.57502 1.5996 2.7554 3.5409 4.8453s4.6955 5.3601 6.1204 7.2672c3.1738 4.2477 10.848 13.404 14.327 17.093 1.4133 1.4989 3.5783 4.3094 4.8111 6.2457 2.7116 4.2588 14.457 17.985 16.28 19.026 0.81036 0.46272 2.3067 0.11834 3.9468-0.9084 1.4529-0.90952 6.7522-4.2284 11.776-7.3753 5.024-3.1469 10.258-6.2142 11.632-6.8163 1.3736-0.60206 3.5458-1.8059 4.8271-2.6752 3.3076-2.244 15.664-5.2258 21.661-5.2272 2.7929-6.8e-4 8.5526-0.61605 12.799-1.3675 9.8332-1.7399 19.728-0.60212 27.706 3.1857 2.9977 1.4233 6.6768 2.8795 8.1756 3.2359 1.4989 0.35643 3.134 0.94606 3.6336 1.3103s3.5655 1.5359 6.813 2.6038c5.8767 1.9324 20.449 10.82 26.257 16.014 1.676 1.4989 4.7316 4.9332 6.7902 7.6319 8.5098 11.155 11.388 15.111 11.425 15.702 0.0216 0.34328 2.298 4.2216 5.0586 8.6184 5.469 8.7106 5.9657 10.123 9.1456 26.013 1.1809 5.9008 2.408 11.151 2.7268 11.667 1.107 1.7912 0.30829 16.721-1.4261 26.658-2.5027 14.339-5.3861 22.573-10.589 30.24-1.1221 1.6534-2.5304 4.5191-3.1297 6.3681-1.0098 3.1152-12.957 18.35-14.39 18.35-0.35028 0-2.5757 2.2458-4.9454 4.9906l-4.3086 4.9906 2.8164 4.0934c1.549 2.2514 3.1618 4.0934 3.5841 4.0934s4.1838 3.9529 8.3591 8.7843c4.1752 4.8314 9.0646 10.248 10.865 12.036 4.293 4.2642 9.8979 11.368 9.8979 12.545 0 0.51189 0.57306 1.4063 1.2735 1.9876 0.7004 0.5813 1.5512 2.1634 1.8906 3.5157s3.4836 5.6333 6.987 9.5133c5.3509 5.9261 6.569 7.888 7.6153 12.265 1.7206 7.1989 1.6102 9.5808-0.57257 12.356-1.5311 1.9465-2.6394 2.3935-5.9338 2.3935-6.0997 0-9.6979-1.9316-13.179-7.0746-1.6925-2.5006-5.4336-6.4556-8.3137-8.789s-5.8094-5.6138-6.5097-7.2898c-0.70028-1.676-2.4317-4.2772-3.8476-5.7804s-4.6182-5.4546-7.1164-8.7808c-6.7856-9.0349-10.389-13.015-12.344-13.636-0.96586-0.30655-2.4118-1.8569-3.2133-3.4453-1.6609-3.2915-11.548-13.335-13.127-13.335-0.65814 0-0.85581 0.92467-0.53406 2.4981 3.2092 15.693 4.838 19.374 14.486 32.737 3.3504 4.6405 6.6728 9.561 7.3831 10.935 0.71027 1.3735 3.8952 5.3436 7.0777 8.8224 3.1824 3.4788 7.1964 8.1646 8.9198 10.413 1.7234 2.2483 5.1089 5.8877 7.5233 8.0876s5.7263 6.0833 7.3599 8.6298c2.8891 4.5037 7.8014 9.6459 15.821 16.561l3.9246 3.3843 9.2472 0.19425c9.515 0.19988 11.651 0.64469 18.958 3.9485 4.9499 2.2379 12.048 9.8658 13.577 14.59 0.56885 1.7579 2.2228 5.5715 3.6755 8.4746s2.6862 6.3778 2.7412 7.7214c0.30487 7.4574-2.3535 22.237-5.201 28.916-1.9751 4.6327-7.0071 10.785-10.424 12.745-1.7487 1.0029-6.7421 3.9061-11.097 6.4515s-9.0554 4.8244-10.447 5.0644-5.0909 1.6975-8.2215 3.2389-6.3323 2.8026-7.115 2.8026c-0.78264 0-4.1486 1.1869-7.4798 2.6376-5.3005 2.3082-7.598 2.7178-18.397 3.2809l-12.341 0.64342-8.0985-2.405c-10.943-3.2495-22.299-9.03-27.165-13.828-2.2066-2.1754-4.5856-3.9552-5.2868-3.9552s-3.071-1.3501-5.2662-3.0002-5.8309-4.1159-8.0792-5.4796c-2.2483-1.3636-6.3361-4.2975-9.084-6.5197s-8.2527-5.9788-12.233-8.348-10.639-6.8741-14.798-10.011c-4.1589-3.1367-8.0986-5.7031-8.7549-5.7031-0.65632 0-2.3772-1.0031-3.8241-2.2291s-4.0615-3.4293-5.8102-4.8963-5.7316-4.8583-8.851-7.5362c-10.244-8.7941-12.457-10.547-15.828-12.534-1.8326-1.0804-3.9881-2.9658-4.79-4.1896-1.451-2.2145-4.1414-3.061-4.1414-1.3031 0 0.79053 10.139 22.39 13 27.693 3.8981 7.2265 7.8935 16.105 7.8935 17.54 0 0.9449 1.227 3.4119 2.7267 5.4821 5.7261 7.9047 7.8544 18.787 5.4016 27.62-1.9087 6.8729-10.926 8.1522-16.868 2.3931-1.6882-1.6363-3.0695-3.5217-3.0695-4.1897s-0.97159-3.1427-2.1591-5.4993-2.4585-5.7154-2.8244-7.4641c-0.91707-4.3826-6.8977-16.102-12.311-24.124-2.4791-3.6738-4.5074-7.3693-4.5074-8.2122s-1.5672-4.0294-3.4828-7.0812c-1.9155-3.0517-3.9445-6.8952-4.5088-8.5411-0.56429-1.6459-1.8585-4.1617-2.876-5.5906s-1.8501-3.1792-1.8501-3.8893c0-0.71012-1.022-2.2512-2.271-3.4246-1.2491-1.1734-2.271-2.7513-2.271-3.5064s-1.5541-3.2387-3.4536-5.5192c-3.2068-3.85-7.4473-12.18-7.4473-14.63 0-0.58435-1.2034-2.8455-2.6742-5.0249-1.4708-2.1793-3.9296-6.5308-5.464-9.67-5.071-10.374-9.8466-16.362-17.863-22.398-3.1659-2.3836-6.9853-6.0307-8.4877-8.1046-3.9027-5.3876-5.2937-6.9992-11.158-12.928-2.8728-2.9043-5.2233-6.0514-5.2233-6.9936 0-1.6094-3.5866-7.2468-5.3243-8.3687-0.43474-0.28068-1.6901-2.1454-2.7896-4.1439-5.3918-9.7998-6.1869-10.917-7.9556-11.177-2.7711-0.4071-3.1941 2.6382-2.55 18.357 0.42599 10.395 1.1852 98.215 1.489 172.23 7e-3 1.7487-0.41152 6.2244-0.93042 9.946-1.1342 8.1345-0.17684 13.539 2.7436 15.489 1.3177 0.87988 4.6337 1.4268 9.3602 1.5439 21.318 0.52796 109.37 1.5432 116.33 1.3411 3.4912-0.10138 40.955 0.55068 64.497 1.1225 9.9924 0.24272 45.453 0.597 78.8 0.78722 33.348 0.19022 60.898 0.61126 61.222 0.93565 0.88778 0.88778 9.543 0.63207 12.143-0.35873zm-297.86-40.066c-7.52-1.6781-14.65-11.158-14.637-19.461 7e-3 -4.8048 4.1557-15.166 7.4141-18.517 5.1598-5.3068 13.618-6.78 23.1-4.0235 7.0311 2.044 9.4981 4.8749 11.736 13.467 0.74196 2.8486 1.349 5.9886 1.349 6.9777 0 3.1273-5.1436 12.046-9.2335 16.011-6.3985 6.2026-10.995 7.4948-19.729 5.5459zm9.9348-11.414c3.8976-2.6608 6.4379-5.7036 6.1086-7.3171-0.24828-1.2166-1.2675-1.5099-4.9281-1.4181-2.5383 0.0637-6.1016 0.60632-7.9185 1.206-2.5072 0.82743-3.3034 1.5867-3.3034 3.15 0 2.9322 2.2807 4.7724 7.2672 5.8636 0.24981 0.0547 1.4982-0.61328 2.7741-1.4843zm0.34615-18.367c1.2816-0.48726 2.3302-1.2048 2.3302-1.5945s-1.4994-1.1779-3.332-1.7515l-3.332-1.0429-1.634 1.9561c-0.8987 1.0759-1.6476 2.2627-1.6642 2.6374-0.0432 0.97382 4.8797 0.84184 7.6321-0.20462zm-3.1203-484.43c-1.7487-1.1223-4.8133-2.863-6.8103-3.8682-4.5055-2.268-9.5385-10.144-9.546-14.938-3e-3 -1.7708-0.41844-4.7078-0.92367-6.5268-1.1563-4.163-0.28426-6.5667 4.6449-12.803 4.5038-5.6977 5.4449-6.4007 11.805-8.8179 6.0512-2.2999 13.218-2.4436 16.298-0.32664 3.6582 2.5142 10.704 10.351 12.441 13.839 2.3992 4.8169 2.1526 16.864-0.43055 21.038-2.6576 4.2942-6.1276 7.422-12.436 11.21-6.3751 3.8277-10.435 4.1497-15.042 1.1931zm16.168-26.942c-0.2295-3.5312-0.58288-4.2117-2.3148-4.4577-1.7877-0.2539-2.0439 0.1108-2.0439 2.9096 0 1.7599 0.47294 4.2378 1.051 5.5065 0.83531 1.8333 1.3103 2.0914 2.3148 1.2578 0.8289-0.68792 1.1706-2.4829 0.99293-5.2162zm-20.71-2.8584c0-0.47014-0.40878-0.85479-0.9084-0.85479-0.49963 0-0.90841 0.6373-0.90841 1.4162s0.40878 1.1636 0.90841 0.85479c0.49962-0.30879 0.9084-0.94609 0.9084-1.4162zm239.32 23.807c-8.0151-2.9495-12.016-5.7504-13.772-9.6402-2.3069-5.1116-1.9616-17.264 0.63592-22.384 1.5529-3.0606 8.8414-9.7319 12.887-11.796 4.1767-2.1308 7.1294-2.148 13.012-0.0759 6.9898 2.4622 8.0707 3.3009 10.949 8.4964 2.3548 4.251 2.6721 5.7082 2.6342 12.1-0.0381 6.4134-0.38336 7.8888-2.9389 12.557-1.5927 2.9096-3.6172 6.1816-4.4989 7.2713-3.6128 4.4648-12.015 6.007-18.908 3.4703zm12.25-13.236c0.58963-0.71045 1.8249-3.3516 2.7452-5.8691 1.3-3.5566 1.4264-4.7821 0.56697-5.4954-1.2576-1.0438-3.7469 0.36467-8.4766 4.7962-1.9711 1.8468-2.9523 3.6126-2.9523 5.3131v2.547h3.5224c1.9373 0 4.0048-0.58129 4.5944-1.2918zm-9.0949-14.686c2.8007-2.3566 3.7904-5.8276 1.6594-5.8197-0.62452 3e-3 -2.464 1.2494-4.0878 2.7712-5.1736 4.849-2.9816 7.6006 2.4284 3.0484zm71.465 587.22c0.78682-1.273 0.71274-58.208-0.0789-60.703-0.3089-0.97326-0.10269-2.6271 0.45825-3.6752 1.3889-2.5951 1.973-62.945 0.76475-79.011-0.55369-7.3623-0.60699-14.623-0.13337-18.168 0.55752-4.1726 0.45404-7.0521-0.35274-9.8164-0.93199-3.1933-0.91662-4.6114 0.0838-7.7214 0.95751-2.9768 1.1401-9.966 0.83519-31.97-0.21461-15.488-0.39672-32.453-0.40468-37.699-8e-3 -5.246-0.0303-16.692-0.0497-25.435s-0.0161-17.328 7e-3 -19.076c0.30911-23.081-0.0351-43.506-0.89054-52.848-0.75831-8.2813-0.77998-12.236-0.0771-14.08 0.96685-2.5369 1.2272-18.72 1.0642-66.153-0.0429-12.491-0.0482-25.776-0.0118-29.523s0.0453-13.558 0.0198-21.802c-0.22814-73.61-0.26617-108.99-0.14254-132.6 0.0798-15.224-0.20662-28.032-0.6363-28.462-0.43606-0.43606-1.587-0.27804-2.6049 0.35763-1.6003 0.99938-1.909 2.5385-2.5209 12.565-0.66893 10.962-1.1742 41.1-1.3035 77.74-0.0335 9.4928 0.32933 18.588 0.80624 20.212 0.54828 1.8668 0.55012 4.0379 5e-3 5.9046-0.47416 1.6238-0.86841 11.946-0.87609 22.937-7e-3 10.992-0.0592 55.753-0.11443 99.47-0.0552 43.717 0.22238 87.456 0.61692 97.199s0.67482 18.327 0.62285 19.076c-0.052 0.74943-0.31566 14.444-0.58596 30.432-0.74564 44.102-0.65886 71.981 0.24599 79.031 0.44888 3.4974 0.64369 8.1983 0.43291 10.447-0.35242 3.7592-1.0694 92.123-1.1329 139.62-0.0148 11.092 0.36941 21.209 0.85385 22.483 0.9207 2.4216 3.925 3.1696 5.0993 1.2695zm-81.842-34.712c1.4989-0.81078 3.7472-1.4912 4.9962-1.5119 1.2491-0.0208 3.293-0.62199 4.542-1.336 1.249-0.71402 3.1455-1.3127 4.2144-1.3304 2.3149-0.0383 14.58-5.9792 21.552-10.44 4.6478-2.9731 8.7524-7.3698 8.7524-9.3751 0-0.48388 0.81071-2.7125 1.8016-4.9526 0.99086-2.24 2.21-6.9528 2.7092-10.473l0.90768-6.4-2.3254-6.2211c-1.279-3.4216-2.7411-7.6196-3.2491-9.3289-1.4006-4.7126-5.3988-8.2472-9.3288-8.2472h-3.2658l0.24359 3.8607 0.24358 3.8607-3.1794 0.24266c-2.5479 0.19446-4.2064-0.53348-8.3503-3.665-6.511-4.9204-26.597-22.784-30.368-27.009-6.8412-7.6636-11.294-12.874-15.999-18.719-2.7719-3.4441-7.5901-8.8852-10.707-12.091-3.117-3.206-7.239-8.3158-9.16-11.355s-5.1498-7.9786-7.1751-10.976c-6.792-10.053-11.768-18.159-11.787-19.204-0.0107-0.56996-0.82803-2.8183-1.8163-4.9962-0.98827-2.178-1.8058-5.2826-1.8168-6.8992s-0.49974-4.7332-1.0862-6.9257c-0.90076-3.3678-0.83029-4.4836 0.4542-7.1904 2.23-4.6994 1.8932-6.541-1.7241-9.4259-1.7845-1.4232-4.3394-3.7693-5.6775-5.2137-3.6942-3.9873-7.6967-7.9695-11.138-11.082-5.3104-4.8023-11.48-11.545-14.624-15.982-4.5582-6.4329-10.448-13.765-18.025-22.44-3.7591-4.3037-7.9291-9.3043-9.2665-11.112-1.3374-1.8081-3.7204-4.4651-5.2956-5.9046-2.6539-2.4253-4.5874-4.4253-12.441-12.869-1.6238-1.7458-2.9523-3.5622-2.9523-4.0367 0-0.47442-3.3724-4.2028-7.4943-8.2852-10.475-10.374-16.124-16.508-16.124-17.506 0-0.4683-1.5329-2.4206-3.4065-4.3384s-4.4285-5.0406-5.6775-6.9396c-2.2772-3.462-31.654-34.824-34.674-37.017-0.8847-0.64252-3.1278-3.457-4.9846-6.2544s-6.8765-8.6633-11.155-13.035c-4.2783-4.372-11.126-11.777-15.217-16.456-4.0912-4.6786-11.449-12.661-16.351-17.739-4.902-5.0776-11.978-12.721-15.726-16.986-9.9514-11.326-29.208-31.032-31.501-32.237-3.2552-1.7099-4.5796-0.44297-5.3795 5.146-0.85532 5.9768-0.97358 9.7374-1.6334 51.946-0.29472 18.852-0.13852 32.969 0.39201 35.428 0.48507 2.2483 1.4936 10.424 2.2412 18.168 0.74759 7.7441 1.7613 16.124 2.2527 18.622s1.3246 11.083 1.8514 19.076c0.93173 14.137 2.7624 25.129 4.5423 27.273 0.48182 0.58056 1.5494 5.3099 2.3724 10.51 0.88795 5.6099 2.386 11.199 3.6843 13.744 2.0264 3.9737 4.0186 10.201 5.7474 17.966 0.60793 2.7304 5.3573 14.764 9.4774 24.013 0.68229 1.5316 1.4831 3.8774 1.7797 5.2129 0.29654 1.3354 1.4959 3.5837 2.6653 4.9962s2.6145 3.9988 3.2114 5.7475c1.2996 3.8073 8.9574 15.443 10.163 15.443 0.46794 0 0.85079 1.0615 0.85079 2.3588 0 1.3624 2.2064 5.651 5.2233 10.152 6.1142 9.1228 6.0118 8.9557 7.6162 12.437 0.68243 1.481 3.0365 4.5468 5.2313 6.813s4.9351 5.478 6.0896 7.1373c2.2862 3.286 11.69 11.97 15.623 14.427 2.6049 1.6274 9.8157 7.9947 18.808 16.608 7.07 6.7719 11.68 10.135 16.217 11.83 2.8487 1.0641 4.1466 2.3008 5.8132 5.5392 1.3449 2.6134 3.3975 4.8775 5.5006 6.0672 1.8452 1.0438 6.1624 4.2741 9.5937 7.1784s8.674 7.0075 11.65 9.1182c2.9764 2.1107 6.5263 4.9722 7.8887 6.3588 5.1643 5.256 9.8164 9.0664 14.646 11.996 2.7479 1.6668 5.8138 3.8124 6.813 4.7678 3.4543 3.303 13.634 10.937 15.897 11.921 1.249 0.5433 3.9061 2.2786 5.9046 3.8563 1.9985 1.5776 5.0643 3.5886 6.813 4.4688 1.7487 0.88022 4.2014 2.5375 5.4504 3.6828 1.2491 1.1453 5.7456 4.3532 9.9924 7.1286s9.9697 6.6409 12.718 8.5899c2.7479 1.949 6.0182 4.0683 7.2672 4.7096 1.249 0.6412 2.5979 1.7193 2.9974 2.3958 0.39954 0.6765 1.1422 1.23 1.6503 1.23s2.2251 0.97526 3.8156 2.1672c5.2044 3.9006 10.058 5.8046 16.52 6.4803 3.4963 0.36562 7.4918 1.2426 8.8788 1.9489 6.2412 3.1778 28.496 3.7579 33.814 0.88136zm-183.5-152.81c-1.4989-1.2533-5.5901-4.4575-9.0917-7.1204s-7.5894-6.05-9.084-7.5268c-3.5941-3.5513-14.84-10.871-17.871-11.632-2.9452-0.73918-9.9271-9.2348-13.507-16.435-2.0588-4.1409-2.4935-6.0038-2.0892-8.9534 0.59263-4.3237-0.91018-8.496-5.611-15.578-1.735-2.6138-3.1544-5.1421-3.1544-5.6185 0-1.6518-3.5478-8.8345-5.9262-11.998-1.9324-2.5702-2.305-3.8757-1.9447-6.813 0.43198-3.5216 0.10805-6.1956-2.0461-16.891-0.84854-4.2129-0.78816-5.5325 0.35334-7.7214 1.7183-3.2948 1.7295-8.2889 0.0254-11.27-0.71403-1.249-1.3152-3.9061-1.336-5.9046s-0.63718-4.7828-1.3698-6.1874c-1.7028-3.2647-0.88518-10.334 1.3326-11.521 1.788-0.95689 3.6442 0.44113 3.6442 2.7446 0 0.81319 1.022 3.9936 2.271 7.0675 1.2491 3.074 2.271 7.1456 2.271 9.0482s0.91976 5.2627 2.0439 7.467c2.0674 4.054 4.3149 5.813 4.3149 3.3771 0-0.72989 0.61317-1.836 1.3626-2.4579 1.7177-1.4256 1.7047-4.4676-0.0289-6.7596-0.73355-0.96983-1.3337-2.7072-1.3337-3.8607 0-3.5336 3.2273-2.5714 6.5571 1.955 1.6396 2.2288 3.24 4.0683 3.5564 4.0878 0.31644 0.0194 0.78861-0.78007 1.0493-1.7768s1.152-2.0724 1.9807-2.3904c1.9739-0.75745 5.8246 1.0334 6.5781 3.0593 0.32682 0.87866 2.1549 3.4634 4.0623 5.7438 1.9075 2.2804 3.4681 4.4748 3.4681 4.8763s1.1242 2.0783 2.4981 3.7262 3.6979 4.9721 5.1644 7.3872c1.4664 2.415 4.6345 7.4113 7.0401 11.103 2.4056 3.6915 4.3831 7.1661 4.3944 7.7214s1.4171 3.2532 3.1241 5.9954l3.1036 4.9858-1.4481 1.6002c-0.79652 0.88008-1.998 1.6002-2.67 1.6002-0.8167 0-1.2218 1.1864-1.2218 3.5784 0 4.383 1.1507 5.7761 22.029 26.67 12.05 12.059 15.216 15.73 15.216 17.643 0 1.7394 1.295 3.6124 4.6251 6.69 4.0927 3.7823 4.5073 4.4944 3.6016 6.1866-0.56288 1.0518-1.4381 1.9123-1.945 1.9123-1.8544 0-5.9366-2.6624-10.37-6.763-2.4981-2.3108-5.4917-4.4434-6.6524-4.739-4.2049-1.0711-3.7102 1.0984 1.2795 5.6103 11.926 10.784 11.417 10.172 11.11 13.355l-0.28696 2.9833-3.2471 0.27243c-2.7167 0.22794-4.0671-0.40264-8.2676-3.8607-2.7613-2.2732-5.33-4.1331-5.7083-4.1331s-0.4232 1.0543-0.0998 2.343c0.48478 1.9315-0.0564 2.9685-3.082 5.9046-2.0185 1.9589-4.1805 3.5469-4.8045 3.529-0.62396-0.018-2.3608-1.0581-3.8597-2.3114zm-37.699-118.32c0-2.1035-4.1251-6.1098-4.9375-4.7954-0.83928 1.358 2.0018 6.4538 3.5982 6.4538 0.7366 0 1.3393-0.74631 1.3393-1.6585zm56.177 234.59c0.27313-2.3375-0.43762-4.4342-3.5904-10.591-0.44423-0.86756-0.80769-2.3397-0.80769-3.2715 0-0.93173-1.2325-3.2878-2.7389-5.2356-1.5064-1.9479-3.5907-4.8701-4.6317-6.4939-1.2731-1.9856-2.6071-2.9523-4.0741-2.9523-1.1997 0-2.1813 0.26374-2.1813 0.58608 0 0.32235 1.8395 4.2335 4.0878 8.6915s4.0969 8.793 4.108 9.6334c0.0111 0.84043 0.81958 2.55 1.7966 3.799s1.7855 2.7268 1.7966 3.284c0.0333 1.669 3.7731 5.9112 4.8887 5.5454 0.56985-0.18685 1.1757-1.5345 1.3463-2.9949zm-17.116-34.237c0-2.879-0.934-5.4735-3.6336-10.093-1.9985-3.4199-3.6336-6.5102-3.6336-6.8674 0-0.35712-1.022-1.6094-2.271-2.7828s-2.271-2.6278-2.271-3.232-1.6363-2.5769-3.6362-4.3837c-3.5438-3.2016-5.7773-4.0482-6.7078-2.5426-0.90853 1.47 6.1702 13.975 10.931 19.311 2.6748 2.9977 4.8633 6.0885 4.8633 6.8684 0 2.8277 2.9165 7.5973 4.6455 7.5973 1.411 0 1.7133-0.68364 1.7133-3.8751zm177.37-73.239c-0.12166-1.084-3.4941-6.2106-7.4943-11.392-4.0002-5.1818-7.2731-9.9985-7.2731-10.704 0-0.70524-1.1997-2.4317-2.6661-3.8366-2.0574-1.9711-3.1981-2.4208-4.9962-1.9694-3.5278 0.88542-3.0674 4.2586 1.0764 7.886 1.8736 1.6401 3.8978 4.1351 4.4982 5.5445 0.60041 1.4094 1.5005 2.5625 2.0003 2.5625 0.49973 0 2.2292 1.9417 3.8431 4.3149 3.3351 4.9039 8.9691 10.28 10.325 9.8519 0.49962-0.15776 0.80887-1.1737 0.68721-2.2577zm-28.014-30.629c2.4157-0.92698 1.626-3.7216-2.6344-9.3237-5.3124-6.9854-20.449-21.144-22.239-20.803-0.76756 0.14608-1.5212 1.1431-1.6747 2.2156-0.19799 1.3828 0.82508 2.8332 3.5177 4.9869 2.0883 1.6703 4.9772 5.121 6.4198 7.6682s4.0496 5.9296 5.7934 7.5164 3.1705 3.2069 3.1705 3.6002c0 1.2389 3.6482 4.6913 4.9573 4.6913 0.68911 0 1.8995-0.24812 2.6898-0.55139zm-4.88-43.199c5.3077-5.8898 8.3818-9.6663 15.479-19.015 3.1536-4.1542 5.3726-10.465 5.3726-15.281 0-2.2376 0.73475-5.1782 1.6947-6.7826 3.9465-6.5959 5.344-21.677 3.377-36.443-1.807-13.565-3.017-17.348-10.462-32.706-3.5302-7.2819-6.4186-13.598-6.4186-14.035 0-1.4349-14.246-14.969-18.69-17.756-2.39-1.4989-4.9876-3.1392-5.7724-3.6452-5.7121-3.6827-10.473-5.9795-15.961-7.7-3.4974-1.0964-7.2978-2.3647-8.4455-2.8184-1.1477-0.45379-2.7506-0.82506-3.5621-0.82506s-2.2652-0.71537-3.2304-1.5897c-1.5164-1.3736-3.6873-1.5869-15.969-1.569-17.809 0.026-25.96 0.72115-30.449 2.5972-1.9346 0.80847-4.6642 1.4699-6.0657 1.4699-2.8156 0-11.417 4.2222-19.412 9.5288-2.8519 1.893-6.4879 3.7066-8.0801 4.0302-2.072 0.42119-2.9778 1.1637-3.1869 2.6122-0.27415 1.8997 2.706 5.8155 12.861 16.899 5.4981 6.0006 13.216 15.809 17.222 21.888 2.3048 3.4974 7.1048 9.6291 10.667 13.626 3.5619 3.997 7.1403 8.2892 7.9518 9.5382 0.81158 1.249 5.683 6.6668 10.825 12.039 5.1424 5.3726 9.3498 10.127 9.3498 10.564s1.8746 3.1956 4.1657 6.1286c2.2911 2.9329 4.9328 6.8189 5.8703 8.6356 1.9398 3.7588 8.8059 9.6153 9.8504 8.4021 1.2532-1.4557-0.44348-18.747-2.1917-22.335-1.4217-2.9182-1.4687-3.5674-0.35538-4.9098 0.70562-0.85083 2.6115-2.1023 4.2353-2.781 2.1601-0.90293 2.9523-1.8152 2.9523-3.3997 0-2.3222-4.8471-12.773-6.3569-13.706-1.2468-0.7706-1.1437-3.74 0.20496-5.8995 0.91719-1.4686 0.82246-2.2815-0.53334-4.5767-3.583-6.0656 1.1483-7.4001 6.3404-1.7884 1.8491 1.9985 4.0229 3.6336 4.8307 3.6336 0.80781 0 2.3257 0.6002 3.373 1.3338 2.407 1.686 11.218 19.595 11.218 22.802 0 1.32 0.64897 4.9045 1.4422 7.9655 3.2391 12.5 4.0066 19.591 3.1035 28.67-0.47712 4.7968-1.0709 10.765-1.3196 13.263-0.24866 2.4981-0.70801 6.4759-1.0208 8.8396l-0.56868 4.2976 2.8916 3.651c1.8142 2.2906 3.6404 3.651 4.9011 3.651 1.341 0 3.96-2.1644 7.8722-6.5058zm-50.383-100.56c-0.61776-0.99956 2.5892-3.9674 3.4052-3.1514 0.33418 0.33417 0.60759 1.357 0.60759 2.273 0 1.7167-3.0782 2.3905-4.0128 0.8784zm11.687 95.942c0.19248-0.62452 0.59126-2.8603 0.8862-4.9684l0.53623-3.833-3.3968-2.9801c-5.422-4.7568-9.2728-9.075-9.8968-11.098-0.31803-1.031-2.2631-3.7499-4.3224-6.042-6.4709-7.2025-19.171-22.664-19.555-23.807-0.68774-2.0475-6.4592-8.3564-8.955-9.789-1.3676-0.78496-3.3041-3.1052-4.3034-5.156-0.99924-2.0508-5.1433-7.3359-9.209-11.745-8.771-9.511-12.138-13.497-12.138-14.37 0-0.35269-1.8949-2.542-4.2109-4.8651s-5.5414-6.2677-7.1674-8.7658-4.0622-5.564-5.4136-6.813-3.0914-3.4908-3.8667-4.9818c-0.77526-1.4909-4.9264-6.7424-9.2248-11.67-4.2984-4.9275-9.0416-10.679-10.54-12.781-1.4989-2.1023-6.9721-8.0923-12.163-13.311-5.1906-5.2189-10.495-11.124-11.787-13.122-1.2921-1.9985-3.9357-5.4731-5.8747-7.7214s-4.8875-6.7867-6.5522-10.085c-1.9437-3.8515-5.4243-8.4185-9.7272-12.763-3.6852-3.7213-7.6408-8.7086-8.7903-11.083-1.1494-2.3744-4.5978-7.5644-7.6631-11.533s-7.4128-9.6563-9.661-12.639c-2.2483-2.9825-5.8257-6.6888-7.9498-8.2361-2.1241-1.5474-7.9234-7.5907-12.887-13.43-4.964-5.839-10.136-11.638-11.493-12.887-1.3574-1.2491-3.0652-3.7018-3.795-5.4504-0.72986-1.7487-2.6087-4.6952-4.1752-6.5478s-4.1929-5.1228-5.8363-7.2672-6.14-7.6921-9.9924-12.328c-3.8524-4.6362-8.6941-10.972-10.759-14.08s-5.1678-7.2858-6.8946-9.2843c-1.7267-1.9985-4.9424-6.2511-7.1458-9.4502-7.6755-11.144-9.5556-13.737-13.398-18.48-4.7219-5.8277-13.772-19.519-13.772-20.835 0-1.2702-9.8832-14.369-10.842-14.369-0.41098 0-1.2952-1.3285-1.9648-2.9523-0.66967-1.6238-2.7007-4.5874-4.5134-6.5859s-4.8484-6.0863-6.746-9.084c-4.2862-6.7712-11.3-14.59-17.555-19.571-2.6221-2.0878-5.3462-5.1811-6.0536-6.8741-0.70737-1.693-1.7089-3.0782-2.2256-3.0782s-1.9773-2.048-3.2457-4.5512c-2.2707-4.4811-13.229-16.739-22.509-25.178-2.6063-2.3702-9.8484-9.4252-16.094-15.678-6.2453-6.2526-13.725-13.004-16.621-15.002-2.896-1.9985-5.8912-4.587-6.6559-5.7524-2.8405-4.3286-7.8727-9.2363-9.4705-9.2363-0.90744 0-1.8941 0.76954-2.1927 1.7101-0.61351 1.933-1.7611 2.8427-11.528 9.1384-5.0747 3.2712-8.0184 4.5579-10.901 4.7649-3.4536 0.24806-3.9786 0.56842-4.187 2.5546-0.18717 1.784 1.571 4.1468 8.1983 11.018 4.6401 4.8106 9.6084 10.942 11.041 13.626 1.4322 2.6837 4.1325 6.9234 6.0007 9.4215s5.0328 7.4578 7.0324 11.022c1.9996 3.5638 4.3988 7.2882 5.3317 8.2765 5.746 6.0877 20.318 25.807 20.318 27.495 0 0.44444 0.53516 1.135 1.1893 1.5345 0.65408 0.39954 2.9258 3.1762 5.0483 6.1704s6.0056 7.1287 8.6292 9.1879 6.1424 5.5367 7.8195 7.7279 4.3103 5.2284 5.8515 6.7494c2.99 2.9508 7.3223 8.3998 9.8482 12.387 0.8483 1.339 2.7432 3.1439 4.2109 4.0108s3.0668 2.4285 3.5535 3.4701c0.88955 1.9036 24.554 26.888 37.501 39.592 3.8186 3.7472 7.5093 7.9022 8.2015 9.2334 2.1932 4.218 16.91 19.496 22.096 22.938 2.7426 1.8204 5.5122 4.0163 6.1547 4.8798 0.64252 0.8635 3.4165 3.3956 6.1644 5.6269s5.8528 4.8851 6.8998 5.8975c4.5128 4.3636 8.5484 7.6273 10.078 8.1499 0.90471 0.30919 3.0757 2.413 4.8243 4.6751 1.7487 2.2621 5.8365 6.3384 9.084 9.0584 8.0149 6.7129 8.8348 7.5459 11.729 11.915 1.3833 2.0884 3.8006 4.8788 5.3717 6.2008s5.1412 5.6455 7.9335 9.6078 6.006 7.7124 7.1415 8.3337 3.8647 3.2123 6.0649 5.7579 7.2268 8.3707 11.17 12.945c3.9435 4.574 7.5294 8.3164 7.9688 8.3164 1.591 0 9.1297 7.7232 10.872 11.138 0.98151 1.9239 6.2582 8.0025 11.726 13.508s13.214 14.236 17.215 19.402c4.0003 5.1657 9.2051 11.093 11.566 13.171 2.3612 2.0784 5.3252 5.2824 6.5867 7.1201s6.1191 7.2204 10.795 11.962c4.6755 4.7412 10.25 11.324 12.387 14.628 2.1373 3.304 5.7788 7.5894 8.0922 9.5232 2.3134 1.9337 5.2105 5.0336 6.4381 6.8887 1.2276 1.855 3.3671 4.6225 4.7544 6.1499s4.1575 4.8456 6.156 7.3738c1.9985 2.5281 6.2907 7.3435 9.5382 10.701 5.0517 5.2225 11.571 12.596 13.516 15.287 0.31013 0.42903 3.7319 3.5858 7.604 7.0151 3.8721 3.4292 7.0401 6.6134 7.0401 7.0759 0 0.46249 3.4746 4.7435 7.7214 9.5134s7.7214 9.0696 7.7214 9.555c0 0.48538 1.0862 2.3066 2.4137 4.0471 3.5792 4.6925 8.9988 7.2705 9.8025 4.6627zm-248.36-113.71c-1.5623-2.5278-1.862-4.0211-1.4223-7.0873 0.32775-2.2859-0.22615-8.932-1.3458-16.148-1.0465-6.7449-2.2744-16.702-2.7286-22.127-0.50458-6.0268-1.3633-10.684-2.2078-11.973-0.76007-1.16-2.2681-4.6696-3.3511-7.7991s-3.1363-7.5304-4.5628-9.7798-2.5937-5.059-2.5937-6.2436-1.0765-3.5651-2.3922-5.2901-2.5454-4.4521-2.7327-6.0603-0.59998-3.7464-0.91719-4.7516c-0.96455-3.0565-8.6524-18.625-9.4365-19.109-0.4036-0.24943-1.4129-2.5948-2.2429-5.2119-2.48-7.8199-11.13-24.471-15.662-30.149-1.1242-1.4084-2.0439-3.2267-2.0439-4.0407 0-0.81401-0.85288-3.7225-1.8953-6.4634-1.0424-2.7409-2.2205-6.2097-2.6179-7.7086-0.39744-1.4989-2.241-6.1998-4.0967-10.447-1.8558-4.2468-4.1255-10.041-5.044-12.877-0.91842-2.8354-3.1274-7.9717-4.9088-11.414-1.7814-3.4424-3.239-6.9946-3.239-7.8939 0-2.0117-12.386-14.887-17.563-18.257-3.8664-2.5169-14.863-14.562-16.502-18.074-0.49962-1.071-1.8282-3.2228-2.9523-4.7816s-2.0439-3.1473-2.0439-3.5298-2.5549-3.4645-5.6775-6.8489-8.1302-9.0807-11.128-12.658c-2.9977-3.5777-6.6993-7.7906-8.2257-9.3621s-4.1526-4.6967-5.836-6.945c-4.0258-5.3768-8.3496-9.9924-9.3607-9.9924-1.8866 0 0.84686 8.5104 6.2059 19.321 3.1626 6.3799 6.0279 12.512 6.3674 13.626 0.3395 1.1144 1.1304 2.6394 1.7576 3.3889 0.62717 0.74944 1.654 2.9977 2.282 4.9962 0.62789 1.9985 1.4572 4.0424 1.8428 4.542 0.38566 0.49963 1.1865 2.7479 1.7796 4.9962s3.0952 8.2543 5.5603 13.347c2.4651 5.0923 5.2453 11.648 6.1783 14.569s3.0222 7.2744 4.6426 9.6755c1.6205 2.4011 3.6685 6.6779 4.5512 9.504 1.7423 5.5782 2.8972 8.6172 5.4053 14.222 0.89423 1.9985 2.1314 5.2687 2.7492 7.2672 0.61784 1.9985 2.6942 6.0103 4.6141 8.9152 1.9199 2.9048 3.7602 6.7883 4.0896 8.6298 0.53941 3.0155 6.5398 14.73 13.115 25.604 4.5042 7.4489 12.507 22.811 16.325 31.34 1.1185 2.4981 3.2196 6.3129 4.6691 8.4772 1.4495 2.1644 3.4959 5.6217 4.5474 7.683s3.2127 5.6387 4.8025 7.9498c4.0626 5.906 14.983 28.344 20.098 41.295 2.3679 5.9954 5.0065 11.718 5.8635 12.718 0.85701 0.99924 2.7174 3.8607 4.1342 6.3588s3.9209 6.5239 5.5647 8.9463 3.5669 6.3515 4.2737 8.7314c0.70676 2.3799 2.959 7.0825 5.0049 10.45s3.7199 6.3129 3.7199 6.545c0 0.23208 1.1242 1.9007 2.4981 3.7081l2.4981 3.2861 1.5691-13.866zm-5.5331-91.593c0.6365-2.1234 1.3437-9.3793 1.5715-16.124 0.29075-8.6067 0.9653-14.16 2.2622-18.622 1.0164-3.4974 2.0339-7.994 2.2613-9.9924l0.41337-3.6336-7.7-7.2672c-9.2222-8.7039-19.535-18.144-28.569-26.154-3.6492-3.2351-8.0754-7.565-9.8361-9.622-3.987-4.6579-5.7849-4.8488-5.7849-0.61417 0 1.7192 0.39715 3.3712 0.88254 3.6712 1.174 0.7256 4.2186 7.6884 5.0299 11.503 0.72435 3.4059 7.2377 19.18 9.1146 22.073 0.66596 1.0268 1.8922 3.9108 2.7249 6.4089s2.0274 5.1552 2.655 5.9046c1.8042 2.1547 15.02 29.281 15.026 30.842 3e-3 0.77343 0.55313 2.4554 1.2223 3.7378 0.66919 1.2824 1.4754 3.362 1.7915 4.6215 0.62004 2.4704 3.9381 7.1272 5.0784 7.1272 0.38428 0 1.2195-1.7373 1.856-3.8607zm98.466-18.183 1.8744-2.513-1.5815-9.2963c-0.87904-5.167-2.3029-10.305-3.2056-11.567-1.4908-2.0846-4.424-7.5574-7.4414-13.884-0.66341-1.391-2.4582-3.3057-3.9884-4.2547-1.5302-0.94906-3.6854-2.5707-4.7894-3.6037s-5.4939-3.7172-9.7556-5.9648c-6.0703-3.2016-8.685-4.0836-12.073-4.0727-7.1371 0.023-7.2716 0.63499-1.9106 8.698 2.6275 3.9518 6.6338 9.4896 8.903 12.306 2.2692 2.8165 5.3521 7.2481 6.851 9.8481 3.1086 5.3922 10.195 14.554 11.256 14.554 0.39047 0 3.1273 2.8605 6.0818 6.3566s5.9417 6.2554 6.6382 6.1317c0.69648-0.12368 2.1098-1.3557 3.1408-2.7378zm302.92-166.22c0.27076-1.4287-0.62531-1.5897-8.8494-1.5897-9.5607 0-12.306 1.2904-4.8357 2.2731 2.3732 0.31217 4.9281 0.70794 5.6775 0.87949 0.74943 0.17153 2.7899 0.24775 4.5345 0.16936 2.2291-0.10016 3.2614-0.61501 3.4731-1.7322zm-213.08-0.62052c7.2402-0.0497 8.8569-0.30952 8.8569-1.4234 0-1.1045-1.5056-1.3698-7.9485-1.4005-24.157-0.11517-65.527-0.91218-80.167-1.5444-9.243-0.39919-22.12-0.59842-28.615-0.44272-6.4951 0.15569-14.671 0.25093-18.168 0.21165-7.0448-0.0791-13.172 0.71665-13.172 1.7108 0 1.1178 5.8813 2.8293 9.6027 2.7945 1.963-0.0183 6.325-0.56682 9.6932-1.2188 3.3683-0.65197 6.3586-0.95092 6.6452-0.66431 0.44821 0.4482 4.1432 0.65351 19.025 1.0571 1.4989 0.0406 10.492 0.0491 19.985 0.0186 9.4928-0.0304 21.552 0.24852 26.798 0.61986 5.246 0.37135 16.079 0.60034 24.073 0.50886 7.994-0.0915 18.52-0.19366 23.391-0.2271zm97.88-0.51499c0-1.4676-4.0726-1.9486-4.9179-0.5809-0.71794 1.1616 0.4078 1.9435 2.7983 1.9435 1.2785 0 2.1196-0.54072 2.1196-1.3626zm14.401 0.77899c3.071-0.32098 5.5837-0.93415 5.5837-1.3626 0-1.0193-15.189-1.0167-15.819 3e-3 -1.2345 1.9975 1.1296 2.3116 10.235 1.3599zm62.381-0.68288c0.98547-0.72059 1.588-1.4916 1.339-1.7132-0.24903-0.22167-2.8036-0.63438-5.6768-0.9171-3.5906-0.35332-5.5814-0.15667-6.3669 0.62888-0.62861 0.62862-1.6503 0.97383-2.2703 0.76714-0.62007-0.20669-1.1274 0.16925-1.1273 0.83541 9e-5 1.8034 11.728 2.1352 14.102 0.39891zm-127.93-0.92074c-0.21589-0.64952-5.4683-1.0787-15.209-1.2427-15.129-0.25473-17.766-5e-3 -16.784 1.5838 0.80032 1.2949 32.424 0.95774 31.992-0.34113zm103.83-0.0665c0-2.52-4.7265-2.782-15.67-0.8684-6.4236 1.1232-3.403 2.2137 6.1317 2.2137 7.8183 0 9.5382-0.24259 9.5382-1.3453zm-542.32-120.27c0-0.43844-0.61317-1.306-1.3626-1.928-0.74943-0.62197-1.3626-1.694-1.3626-2.3822 0-0.68826-0.61318-1.2514-1.3626-1.2514-1.8126 0-1.7339 2.626 0.14079 4.6976 1.5635 1.7277 3.947 2.2495 3.947 0.86405zm31.414-10.104c2.3699 0 3.1051-0.3823 3.1051-1.6147 0-2.1425-2.5147-5.6526-4.0496-5.6526-1.2215 0-5.0344 5.617-5.0344 7.4163 0 0.52451 0.6466 0.70554 1.4369 0.40228 0.79029-0.30327 2.8342-0.55139 4.542-0.55139zm-2.5238-13.824c0.16312-0.84702-1.316-3.7038-3.2868-6.3484s-5.3328-8.0786-7.471-12.076c-4.1819-7.8174-6.8836-11.355-8.6719-11.355-1.349 0-5.827 5.1363-5.827 6.6836 0 0.60156 1.2263 1.5566 2.7252 2.1224 1.4989 0.56575 2.7252 1.646 2.7252 2.4005 0 1.8562-4.3895 6.9616-5.9854 6.9616-0.70502 0-1.2819 0.17096-1.2819 0.3799 0 0.20895-0.24812 1.0265-0.55139 1.8168-0.4269 1.1125 0.0608 1.4369 2.1598 1.4369 1.4911 0 3.22-0.61317 3.842-1.3626 1.3556-1.6334 5.5628-1.7952 7.0855-0.27252 0.59954 0.59955 1.0901 1.8403 1.0901 2.7572s0.66018 2.6747 1.4671 3.9061c1.0854 1.6566 2.2744 2.239 4.5705 2.239 1.9643 0 3.3016 0.51651 3.6434 1.4072 0.6945 1.8098 3.3794 1.3129 3.7665-0.69709zm-31.161-4.3437c0.30878-0.49962 0.31982-1.2993 0.0245-1.7771-0.74723-1.209-3.2039-0.12011-3.2039 1.4201 0 1.4524 2.34 1.7152 3.1794 0.35701zm-31.978-13.172c0.48131-1.4989 1.435-3.3706 2.1192-4.1593 1.7898-2.0632 1.5888-3.8898-0.34564-3.1415-4.7608 1.8418-6.5462 1.6192-9.7789-1.2191-1.776-1.5593-3.6236-2.8352-4.1058-2.8352s-0.87679 1.1317-0.87679 2.5148c0 1.809 1.3223 3.8581 4.7117 7.3012 2.5914 2.6325 5.3168 4.6689 6.0564 4.5253 0.73964-0.14358 1.7386-1.4874 2.2199-2.9862zm-7.7908-26.344c0.83416-0.49962 2.3319-1.6242 3.3283-2.4991 0.99643-0.87491 3.1304-2.4943 4.7421-3.5987s3.5599-3.328 4.3292-4.9413c1.0159-2.1303 2.3273-3.1898 4.7904-3.8698 5.096-1.4071 6.9196-0.54902 8.8736 4.1752 1.4183 3.4292 1.5247 4.4876 0.59991 5.9685-1.6102 2.5783-0.0266 3.5922 3.0874 1.9766 2.9853-1.5488 6.0539-1.416 6.6144 0.28618 0.20489 0.62213-0.88725 2.3909-2.427 3.9306-1.5397 1.5397-2.7994 3.1245-2.7994 3.5219 0 1.2334 7.0133 1.9146 9.5971 0.93224l2.4529-0.93259-0.44954-6.1084c-0.52447-7.1269-3.2108-12.641-9.6827-19.874-5.7346-6.4094-11.038-12.784-14.232-17.107-4.0474-5.4779-11.359-11.347-18.018-14.463-1.9434-0.90935-7.462-3.0131-12.263-4.6751-8.883-3.0747-23.508-8.7749-27.017-10.53-3.245-1.6231-5.4529-0.21433-6.712 4.283-0.87934 3.1407-0.90255 4.6377-0.0992 6.4008 0.57672 1.2657 0.81777 2.6748 0.53568 3.1312-0.28208 0.45642 0.3259 2.7261 1.3511 5.0436s1.8639 4.5874 1.8639 5.0442c0 0.45674 1.6351 4.1664 3.6336 8.2436s3.6336 8.0842 3.6336 8.9043c0 1.727 3.1048 11.161 4.7699 14.493 1.8802 3.7629 6.2741 10.289 8.7162 12.945 1.6828 1.8304 3.164 2.4981 5.5418 2.4981 2.2819 0 3.5885 0.54973 4.4017 1.852l1.1566 1.8519 4.0816-2.9875c2.2449-1.6431 4.7641-3.3962 5.5983-3.8959z" style="stroke-width:.9084"/>
</svg>
